<?xml version="1.0" encoding="utf-8"?>
<!-- Generator: Adobe Illustrator 23.1.1, SVG Export Plug-In . SVG Version: 6.00 Build 0)  -->
<svg version="1.1" xmlns="http://www.w3.org/2000/svg" xmlns:xlink="http://www.w3.org/1999/xlink" x="0px" y="0px"
	 viewBox="0 0 841.9 841.9" style="enable-background:new 0 0 841.9 841.9;" xml:space="preserve">
<style type="text/css">
	.st0{fill:#FFFFFF;}
</style>
<g id="Ebene_1">
	<g>
		<path class="st0" d="M435.9,35.5c123.5,0,246.9,0,370.4,0c0,252.1,0,504.2-0.1,756.3c0,5.1-2.1,10.3-3.3,15.4
			c-13.6-118.1-78.5-200.9-178.1-260.8c-54.4,56.3-112.9,105.4-176.3,148.5c-34,23.1-21.2,24-56.3,0.1
			c-63.3-43.2-121.9-92.3-176.3-148.9c-16.7,11.5-33.8,21.7-49.2,34.1C93.8,638.8,47.2,712.5,38.1,807.2c-1.1-5.1-3.3-10.3-3.3-15.4
			c-0.2-251.7-0.1-503.4-0.1-756.3c123.5,0,246.9,0,370.4,0c-4.3,1.2-8.6,3.2-13.1,3.5c-39.5,3.1-75.6,16.2-108.9,37.2
			C159.9,153.8,151,313.8,265,404.2c95,75.3,243.5,68.2,329.9-16.8c48.8-48,71.2-106.7,57.4-174.5C633,117.7,568,66.7,477.7,43.3
			C464,39.7,449.9,38.1,435.9,35.5z"/>
		<path d="M38.1,807.2c9.1-94.8,55.8-168.5,128.5-227.1c15.4-12.4,32.5-22.6,49.2-34.1c54.5,56.7,113,105.7,176.3,148.9
			c35.1,24,22.3,23.1,56.3-0.1c63.4-43.1,122-92.2,176.3-148.5c99.6,59.9,164.5,142.7,178.1,260.8C548,807.2,293,807.2,38.1,807.2z"
			/>
	</g>
</g>
<g id="Ebene_2">
	<ellipse cx="420.6" cy="245.9" rx="235.8" ry="210.4"/>
</g>
</svg>
