<?xml version="1.0" encoding="utf-8"?>
<!-- Generator: Adobe Illustrator 24.0.0, SVG Export Plug-In . SVG Version: 6.00 Build 0)  -->
<svg version="1.1" id="Ebene_1" xmlns="http://www.w3.org/2000/svg" xmlns:xlink="http://www.w3.org/1999/xlink" x="0px" y="0px"
	 viewBox="0 0 841.9 841.9" style="enable-background:new 0 0 841.9 841.9;" xml:space="preserve">
<style type="text/css">
	.st0{fill:#FFFFFF;}
</style>
<rect class="st0" width="841.9" height="841.9"/>
<g id="Ebene_1_1_">
	<g>
		<path class="st0" d="M432.6,239.1c96.7,0,193.4,0,290.2,0c0,197.5,0,395-0.1,592.4c0,4-1.6,8.1-2.6,12.1
			c-10.7-92.5-61.5-157.4-139.5-204.3c-42.6,44.1-88.4,82.6-138.1,116.3c-26.6,18.1-16.6,18.8-44.1,0.1
			c-49.6-33.8-95.5-72.3-138.1-116.6c-13.1,9-26.5,17-38.5,26.7c-57.1,45.9-93.6,103.6-100.7,177.8c-0.9-4-2.6-8.1-2.6-12.1
			c-0.2-197.2-0.1-394.3-0.1-592.4c96.7,0,193.4,0,290.2,0c-3.4,0.9-6.7,2.5-10.3,2.7c-30.9,2.4-59.2,12.7-85.3,29.1
			c-96.5,60.8-103.5,186.1-14.2,256.9c74.4,59,190.7,53.4,258.4-13.2c38.2-37.6,55.8-83.6,45-136.7c-15.1-74.6-66-114.5-136.8-132.9
			C454.6,242.4,443.5,241.1,432.6,239.1z"/>
		<path d="M120.9,843.6c7.1-74.3,43.7-132,100.7-177.9c12.1-9.7,25.5-17.7,38.5-26.7c42.7,44.4,88.5,82.8,138.1,116.6
			c27.5,18.8,17.5,18.1,44.1-0.1c49.7-33.8,95.6-72.2,138.1-116.3c78,46.9,128.9,111.8,139.5,204.3
			C520.4,843.6,320.6,843.6,120.9,843.6z"/>
	</g>
</g>
<g id="Ebene_2_1_">
	<ellipse cx="420.6" cy="403.9" rx="184.7" ry="164.8"/>
</g>
</svg>
