<?xml version="1.0" encoding="utf-8"?>
<!-- Generator: Adobe Illustrator 23.1.1, SVG Export Plug-In . SVG Version: 6.00 Build 0)  -->
<svg version="1.1" xmlns="http://www.w3.org/2000/svg" xmlns:xlink="http://www.w3.org/1999/xlink" x="0px" y="0px"
	 viewBox="0 0 841.9 841.9" style="enable-background:new 0 0 841.9 841.9;" xml:space="preserve">
<style type="text/css">
	.st0{display:none;fill:#FFFFFF;}
	.st1{fill:#242424;}
	.st2{fill:#222528;}
</style>
<g id="Ebene_1">
	<g>
		<path class="st0" d="M435.9-238.2c123.5,0,246.9,0,370.4,0c0,341.5,0,683-0.1,1024.5c0,7-2.1,13.9-3.3,20.9
			c-13.6-160-78.5-272.1-178.1-353.3c-54.4,76.3-112.9,142.7-176.3,201.2c-34,31.3-21.2,32.5-56.3,0.1
			c-63.3-58.5-121.9-125-176.3-201.7c-16.7,15.5-33.8,29.4-49.2,46.2C93.8,579.1,47.2,678.9,38.1,807.2c-1.1-7-3.3-13.9-3.3-20.9
			c-0.2-341-0.1-682-0.1-1024.6c123.5,0,246.9,0,370.4,0c-4.3,1.6-8.6,4.3-13.1,4.7c-39.5,4.2-75.6,22-108.9,50.4
			C159.9-77.9,151,138.8,265,261.3c95,102,243.5,92.4,329.9-22.7c48.8-65,71.2-144.5,57.4-236.3C633-126.9,568-196,477.7-227.7
			C464-232.5,449.9-234.7,435.9-238.2z"/>
		<path class="st1" d="M38.1,807.2c9.1-128.4,55.8-228.2,128.5-307.6c15.4-16.8,32.5-30.7,49.2-46.2
			c54.5,76.7,113,143.2,176.3,201.7c35.1,32.5,22.3,31.3,56.3-0.1c63.4-58.4,122-124.9,176.3-201.2
			c99.6,81.2,164.5,193.3,178.1,353.3C548,807.2,293,807.2,38.1,807.2z"/>
	</g>
</g>
<g id="Ebene_2">
	<ellipse class="st2" cx="420.6" cy="259.7" rx="235.8" ry="224.2"/>
</g>
</svg>
