<svg xmlns="http://www.w3.org/2000/svg" version="1.1" xmlns:xlink="http://www.w3.org/1999/xlink" xmlns:svgjs="http://svgjs.com/svgjs" width="501.55" height="495.28"><svg id="SvgjsSvg1000" data-name="Layer 1" xmlns="http://www.w3.org/2000/svg" viewBox="0 0 501.55 495.28"><defs><style>.cls-1{fill:#d11317;}.cls-2{fill:#fff;}</style></defs><polygon class="cls-1" points="501.55 495.28 0 495.28 73 0 501.55 0 501.55 495.28"></polygon><path class="cls-2" d="M376.91,231.05c-13.15,21.92-19,30.69-23.39,29.23s11.7-23.39,11.7-43.85-17.54-35.08-32.16-40.92S292.14,158,292.14,158v81.84c0,14.62,5.84,78.93,5.84,93.55A106.13,106.13,0,0,1,294,360.89l-.47-1.49c-4.94,23.15-28.44,45.13-60.68,53.9-41.31,11.23-81.24-3.42-89.22-32.71s19-62.17,60.31-73.43c31-8.41,61.15-2.28,77.69,13.65,0,0-7.07-81-7.07-92.69V58.58S292.14,67.35,306.75,79s77.47,65.77,81.85,87.7C391.52,181.35,386.53,215,376.91,231.05Z" transform="translate(1 -5.3)"></path></svg><style>@media (prefers-color-scheme: light) { :root { filter: none; } }
</style></svg>