<?xml version="1.0" standalone="no"?>
<!DOCTYPE svg PUBLIC "-//W3C//DTD SVG 20010904//EN"
 "http://www.w3.org/TR/2001/REC-SVG-20010904/DTD/svg10.dtd">
<svg version="1.0" xmlns="http://www.w3.org/2000/svg"
 width="335.000000pt" height="335.000000pt" viewBox="0 0 335.000000 335.000000"
 preserveAspectRatio="xMidYMid meet">
<metadata>
Created by potrace 1.14, written by Peter Selinger 2001-2017
</metadata>
<g transform="translate(0.000000,335.000000) scale(0.100000,-0.100000)"
fill="#000000" stroke="none">
<path d="M495 3320 c-3 -4 -14 -72 -25 -151 -11 -79 -23 -155 -25 -169 -2 -14
-7 -43 -10 -65 -2 -22 -7 -53 -10 -70 -12 -70 -15 -92 -20 -136 -3 -26 -7 -55
-9 -65 -2 -11 -7 -39 -11 -64 -3 -25 -8 -56 -10 -70 -3 -14 -7 -47 -10 -75 -3
-27 -12 -88 -20 -135 -7 -47 -16 -105 -20 -130 -8 -61 -14 -99 -19 -135 -3
-16 -8 -52 -12 -80 -3 -27 -8 -59 -10 -70 -3 -11 -7 -40 -10 -65 -5 -41 -9
-70 -18 -125 -13 -82 -16 -105 -21 -140 -3 -23 -7 -50 -9 -60 -2 -11 -7 -42
-10 -70 -4 -27 -9 -61 -11 -75 -2 -14 -16 -106 -30 -205 -14 -99 -30 -205 -35
-235 -5 -30 -12 -75 -15 -100 -3 -25 -8 -56 -10 -70 -2 -14 -7 -45 -10 -70 -3
-25 -10 -70 -15 -100 -5 -30 -12 -77 -16 -105 -3 -27 -7 -57 -9 -65 -4 -21
-16 -100 -20 -130 -2 -14 -6 -43 -10 -65 -3 -22 -7 -53 -9 -70 -2 -16 -7 -50
-11 -75 l-7 -45 1664 1 c915 1 1665 2 1668 3 4 1 5 3262 1 3282 -2 9 -2841 7
-2846 -1z"/>
</g>
</svg>
