<?xml version="1.0" standalone="no"?>
<!DOCTYPE svg PUBLIC "-//W3C//DTD SVG 20010904//EN"
 "http://www.w3.org/TR/2001/REC-SVG-20010904/DTD/svg10.dtd">
<svg version="1.0" xmlns="http://www.w3.org/2000/svg"
 width="1004.000000pt" height="1004.000000pt" viewBox="0 0 1004.000000 1004.000000"
 preserveAspectRatio="xMidYMid meet">
<metadata>
Created by potrace 1.14, written by Peter Selinger 2001-2017
</metadata>
<g transform="translate(0.000000,1004.000000) scale(0.100000,-0.100000)"
fill="#000000" stroke="none">
<path d="M1454 9923 c-4 -27 -8 -60 -8 -75 -1 -16 -4 -28 -8 -28 -3 0 -5 -8
-4 -17 2 -10 -1 -33 -5 -53 -4 -19 -10 -60 -14 -90 -9 -84 -13 -115 -16 -117
-3 -5 -5 -17 -13 -83 -4 -36 -10 -74 -12 -85 -5 -24 -14 -89 -19 -130 -1 -16
-4 -30 -5 -30 -1 0 -3 -13 -5 -30 -1 -16 -6 -46 -9 -65 -7 -38 -11 -67 -21
-145 -3 -27 -8 -57 -10 -65 -3 -8 -7 -42 -11 -75 -3 -33 -8 -63 -11 -68 -2 -4
-6 -31 -9 -60 -2 -28 -6 -63 -9 -77 -3 -14 -8 -43 -11 -65 -3 -22 -7 -51 -10
-65 -2 -14 -6 -41 -8 -60 -3 -19 -7 -48 -9 -65 -8 -47 -17 -107 -21 -140 -8
-59 -17 -120 -21 -135 -2 -8 -7 -39 -10 -69 -4 -30 -9 -63 -11 -75 -2 -12 -7
-41 -10 -66 -6 -50 -12 -91 -20 -135 -5 -28 -10 -68 -19 -140 -2 -16 -4 -30
-5 -30 -1 0 -3 -13 -5 -30 -3 -29 -8 -69 -21 -145 -3 -19 -7 -50 -10 -69 -2
-19 -7 -48 -10 -65 -3 -17 -7 -42 -8 -56 -1 -14 -4 -29 -7 -35 -3 -5 -5 -22
-4 -37 1 -16 -1 -28 -4 -28 -3 0 -6 -12 -7 -27 -1 -36 -14 -146 -19 -153 -1
-3 -6 -27 -9 -55 -16 -118 -29 -209 -41 -285 -3 -14 -7 -43 -10 -65 -3 -22 -8
-56 -11 -75 -3 -19 -7 -51 -10 -70 -2 -19 -6 -46 -8 -60 -5 -21 -13 -74 -21
-130 -1 -8 -5 -35 -9 -60 -4 -25 -9 -61 -11 -80 -3 -19 -7 -46 -9 -60 -3 -14
-7 -43 -10 -65 -12 -88 -19 -131 -23 -150 -2 -11 -6 -38 -8 -60 -2 -22 -6 -49
-8 -60 -5 -21 -17 -101 -22 -150 -2 -16 -6 -41 -8 -55 -5 -22 -13 -78 -22
-145 -2 -11 -6 -40 -10 -65 -3 -25 -8 -56 -10 -70 -2 -14 -4 -25 -5 -25 -1 0
-3 -13 -4 -30 -2 -16 -7 -52 -10 -80 -4 -27 -9 -66 -12 -85 -2 -19 -7 -48 -10
-63 -3 -16 -7 -38 -9 -50 -4 -31 -16 -117 -22 -152 -2 -16 -6 -41 -8 -55 -12
-84 -35 -249 -39 -270 -3 -14 -12 -75 -21 -136 -8 -60 -17 -121 -20 -135 -15
-94 -36 -241 -40 -278 -2 -24 -7 -51 -9 -60 -5 -16 -17 -102 -22 -156 -1 -16
-3 -30 -4 -30 -2 0 -4 -9 -5 -20 -9 -68 -18 -125 -24 -161 -4 -22 -7 -48 -5
-57 1 -9 -2 -17 -7 -17 -6 0 -8 -4 -5 -8 4 -7 -10 -121 -30 -237 -3 -16 -7
-41 -9 -55 -7 -42 -17 -134 -17 -152 1 -10 -2 -18 -6 -18 -4 0 -7 -15 -8 -33
-1 -29 -11 -104 -20 -152 -2 -11 -6 -41 -9 -66 -3 -25 -8 -56 -10 -69 -3 -13
-7 -42 -10 -65 -4 -22 -8 -51 -10 -65 -2 -14 -7 -45 -10 -70 -4 -25 -8 -54
-10 -65 -2 -11 -6 -40 -9 -65 -3 -25 -8 -56 -11 -70 -3 -14 -7 -46 -10 -71 -3
-25 -8 -56 -10 -70 -5 -23 -10 -54 -20 -129 -5 -39 -14 -99 -22 -145 -3 -16
-6 -43 -8 -60 -7 -60 -15 -111 -21 -135 -3 -14 -7 -47 -9 -75 -2 -27 -5 -50
-6 -50 -3 0 -15 -76 -23 -155 -2 -19 -5 -35 -6 -35 -2 0 -4 -13 -15 -95 -3
-19 -7 -51 -10 -70 -3 -19 -7 -53 -10 -75 -7 -46 -13 -80 -15 -80 -1 0 -3 -22
-6 -50 -9 -86 -9 -90 -17 -102 -5 -7 -6 -16 -4 -20 3 -5 1 -33 -4 -63 -11 -61
-15 -90 -24 -153 -3 -23 -8 -53 -10 -67 -2 -14 -7 -43 -10 -65 -3 -22 -7 -51
-10 -65 -2 -14 -7 -45 -10 -70 -3 -25 -7 -56 -10 -70 -2 -13 -7 -41 -10 -62
l-6 -38 5021 0 5020 0 0 4955 0 4955 -4289 0 -4290 0 -7 -47z"/>
</g>
</svg>
