<svg id="fb" xmlns="http://www.w3.org/2000/svg" width="46.728" height="49.129" viewBox="0 0 46.728 49.129">
  <path id="Pfad_1512" data-name="Pfad 1512" d="M52,24.944a24.937,24.937,0,0,1-5.711,16.073A22.267,22.267,0,0,1,32.807,49.1a21.945,21.945,0,0,1-18.8-5.036A23.744,23.744,0,0,1,5.748,29.755,24.838,24.838,0,0,1,10.295,9.779,22.252,22.252,0,0,1,23.4,1.035,21.861,21.861,0,0,1,42.684,5.351a24.14,24.14,0,0,1,8.865,14.791A24.116,24.116,0,0,1,52,24.944Zm-30.259.472h2.71c.395,0,.395,0,.395.405V40.712c0,.423,0,.423.408.423h5.231c.41,0,.41,0,.41-.421q0-7.493-.005-14.983c0-.292.072-.385.372-.38,1.159.018,2.318,0,3.477.013.277,0,.364-.077.385-.356.09-1.267.208-2.534.31-3.8.033-.392.056-.785.087-1.215h-4.6a1.807,1.807,0,0,1-.023-.18c.01-1.118,0-2.236.044-3.352.033-.815.4-1.128,1.218-1.133,1.026-.008,2.051-.013,3.077-.005.233,0,.295-.072.295-.3q-.012-2.477,0-4.954c0-.249-.082-.31-.318-.31-1.262.01-2.523-.015-3.785.013a15.694,15.694,0,0,0-2.139.182,5.178,5.178,0,0,0-2.875,1.351,5.363,5.363,0,0,0-1.541,3.867c-.049,1.474-.021,2.954-.028,4.429V20H24.48c-.81,0-1.621.01-2.431-.005-.256-.005-.331.074-.328.331.01,1.59.005,3.18.005,4.77C21.729,25.188,21.736,25.28,21.744,25.416Z" transform="translate(-5.275 -0.378)" fill="#333333"/>
</svg>
