<svg id="yt" xmlns="http://www.w3.org/2000/svg" width="48.86" height="48.86" viewBox="0 0 48.86 48.86">
  <path id="Pfad_1516" data-name="Pfad 1516" d="M25.471,49.79a24.43,24.43,0,1,1,24.4-24.476A24.429,24.429,0,0,1,25.471,49.79Zm.831-9.157v.005c3.2,0,6.4.015,9.6-.005a3.711,3.711,0,0,0,3.744-3.813q0-4.647-.005-9.293a4.011,4.011,0,0,0-.141-1.062A3.725,3.725,0,0,0,35.861,23.7q-5.4,0-10.8,0c-2.8,0-5.6-.008-8.4,0a3.724,3.724,0,0,0-3.713,3.6q-.023,4.877,0,9.752a3.69,3.69,0,0,0,3.567,3.572C19.778,40.646,23.04,40.633,26.3,40.633ZM16.868,9.861c.036.149.059.259.092.364q.992,3.208,1.98,6.413a2.292,2.292,0,0,1,.095.631c.008,1.374.005,2.746.005,4.121v.344H20.9v-.349c0-1.385,0-2.767,0-4.152a1.82,1.82,0,0,1,.069-.513c.559-1.859,1.126-3.716,1.687-5.572.128-.423.249-.846.377-1.285h-1.9c-.377,1.521-.751,3.031-1.128,4.544l-.051,0q-.608-2.273-1.218-4.549Zm10.8,7.59h0c0-.81.036-1.621-.008-2.428a2.263,2.263,0,0,0-2.387-2.146,2.229,2.229,0,0,0-2.349,2.21q-.038,2.354,0,4.705a1.939,1.939,0,0,0,1.6,2.041,4.259,4.259,0,0,0,1.039.072,2.152,2.152,0,0,0,2.1-2.087C27.7,19.031,27.668,18.242,27.668,17.452Zm1.367-4.49a1.462,1.462,0,0,0-.021.156c0,2.431-.005,4.862.008,7.293a2.7,2.7,0,0,0,.162.839.9.9,0,0,0,.836.623,1.854,1.854,0,0,0,1.272-.362c.246-.174.469-.382.741-.608v.833h1.662V12.982H32.03v6.152A1.024,1.024,0,0,1,31.3,20.2a.384.384,0,0,1-.585-.321,2.744,2.744,0,0,1-.031-.459q0-3.046,0-6.093v-.369Z" transform="translate(-1.01 -0.93)" fill="rgba(250,250,250,0.76)"/>
  <path id="Pfad_1517" data-name="Pfad 1517" d="M103.923,111.484c-.01.249-.018.415-.026.6h-1.5V100.86h1.5v3.618c.141-.123.221-.192.295-.259a1.627,1.627,0,0,1,1.213-.5,1.155,1.155,0,0,1,1.1.705,3.664,3.664,0,0,1,.277,1.241c.031,1.6.013,3.2.01,4.8a3.478,3.478,0,0,1-.046.487,1.323,1.323,0,0,1-.846,1.182,1.63,1.63,0,0,1-1.659-.351C104.154,111.7,104.067,111.617,103.923,111.484Zm0-3.549c0,.787,0,1.577,0,2.364a.576.576,0,0,0,.056.29.88.88,0,0,0,.846.323c.323-.085.374-.344.387-.623,0-.072.01-.144.01-.215,0-1.362,0-2.723,0-4.085a1.965,1.965,0,0,0-.077-.574.634.634,0,0,0-1.223.215Q103.926,106.784,103.926,107.935Z" transform="translate(-76.401 -75.235)" fill="rgba(250,250,250,0.76)"/>
  <path id="Pfad_1518" data-name="Pfad 1518" d="M128.759,116.029h-2.934c0,.215-.005.415,0,.615.015.541.005,1.087.062,1.623a.661.661,0,0,0,1.3-.021c.049-.382.051-.769.074-1.169.077-.008.146-.021.215-.021.421,0,.839,0,1.282,0a3.849,3.849,0,0,1-.328,2.2,2.212,2.212,0,0,1-2.328.941,2.093,2.093,0,0,1-1.805-2.128c-.044-1.485-.056-2.975,0-4.457a2.33,2.33,0,0,1,3.585-1.78,1.93,1.93,0,0,1,.859,1.559C128.8,114.254,128.759,115.126,128.759,116.029Zm-1.582-1.292c0-.449.026-.867-.008-1.28a.651.651,0,0,0-1.257-.09c-.067.449-.069.905-.1,1.372C126.31,114.737,126.738,114.737,127.177,114.737Z" transform="translate(-92.656 -83.116)" fill="rgba(250,250,250,0.76)"/>
  <path id="Pfad_1519" data-name="Pfad 1519" d="M82.112,112.42h1.477v8.257H82.12v-.813l-.069-.036a1.762,1.762,0,0,1-.2.192,5.854,5.854,0,0,1-1.005.685,1.057,1.057,0,0,1-1.59-.964,3.556,3.556,0,0,1-.015-.369v-6.7c0-.072.008-.141.013-.238h1.48v.354c0,1.939,0,3.875,0,5.813,0,.259-.059.574.231.715.31.149.562-.051.805-.236a.852.852,0,0,0,.354-.759c-.018-1.833-.008-3.67-.008-5.506C82.112,112.692,82.112,112.571,82.112,112.42Z" transform="translate(-59.179 -83.831)" fill="rgba(250,250,250,0.76)"/>
  <path id="Pfad_1520" data-name="Pfad 1520" d="M61.945,112.111H60.24v-9.639H58.45V100.89h5.28v1.574H61.945Z" transform="translate(-43.721 -75.257)" fill="rgba(250,250,250,0.76)"/>
  <path id="Pfad_1521" data-name="Pfad 1521" d="M94.5,57.07c0,.656,0,1.31,0,1.967a1.452,1.452,0,0,1-.062.421.584.584,0,0,1-.539.431.6.6,0,0,1-.628-.349,1.142,1.142,0,0,1-.105-.472q-.012-2.027,0-4.054c0-.467.21-.749.562-.795.459-.059.772.238.777.764C94.506,55.678,94.5,56.375,94.5,57.07Z" transform="translate(-69.527 -40.548)" fill="rgba(250,250,250,0.76)"/>
</svg>
