<?xml version="1.0" encoding="utf-8"?>
<!-- Generator: Adobe Illustrator 23.1.1, SVG Export Plug-In . SVG Version: 6.00 Build 0)  -->
<svg version="1.1" id="Ebene_1" xmlns="http://www.w3.org/2000/svg" xmlns:xlink="http://www.w3.org/1999/xlink" x="0px" y="0px"
	 viewBox="0 0 2289.2 334.2" style="enable-background:new 0 0 2289.2 334.2;" xml:space="preserve">
<style type="text/css">
	.st0{fill:#009FE4;}
	.st1{fill:#FFE500;}
	.st2{fill:#00A1E4;}
	.st3{fill:#00A0E4;}
	.st4{fill:#00A3E6;}
	.st5{fill:#00A3E5;}
	.st6{fill:#00A2E5;}
	.st7{fill:#FFFFFF;}
	.st8{fill:#D73538;}
	.st9{fill:#222527;}
</style>
<g>
	<g>
		<path class="st0" d="M1719.6,95.7c0.6-0.6,0.8-1.2,1-1.7c4.9-9.5,9.7-19,14.6-28.5c1-2,0.6-1.7,2.7-1.7c4.6,0,9.2,0,13.9,0
			c0.4,0,0.9,0,1.3,0c0.3,0,0.5,0.2,0.5,0.5c0,0.4,0,0.8,0,1.2c0,23.2,0,46.3,0,69.5c0,1.9,0.1,1.8-1.8,1.8c-4.8,0-9.6,0-14.4,0
			c-0.4,0-0.8,0-1.2,0c-0.3,0-0.5-0.2-0.5-0.5c0-0.5,0-1,0-1.5c0-10.2,0-20.4,0-30.6c0-0.5,0-1.1,0-1.6c-0.6-0.1-0.6,0.3-0.7,0.6
			c-2.9,5.1-5.8,10.1-8.7,15.2c-0.1,0.2-0.2,0.4-0.3,0.6c-0.3,0.8-0.9,1-1.7,1c-3.1,0-6.1-0.1-9.2,0c-0.9,0-1.4-0.4-1.8-1.1
			c-2.9-5.1-5.9-10.2-8.8-15.3c-0.2-0.3-0.3-0.7-0.7-0.9c-0.5,0.1-0.3,0.5-0.3,0.8c0,7,0,14,0,21c0,3.6,0,7.1,0,10.7
			c0,0.4,0,0.9,0,1.3c0,0.2-0.2,0.4-0.4,0.4c-0.3,0-0.6,0-0.8,0c-5.1,0-10.1,0-15.2,0c-0.2,0-0.3,0-0.5,0c-0.7,0-0.8-0.2-0.8-0.8
			c0-0.3,0-0.7,0-1c0-23.2,0-46.3,0-69.5c0-0.1,0-0.2,0-0.3c0-1.5,0-1.5,1.5-1.5c5,0,9.9,0,14.9,0c0.2,0,0.4,0,0.7,0
			c0.4,0,0.6,0.1,0.8,0.5c0.2,0.4,0.4,0.8,0.6,1.2c4.7,9.2,9.4,18.4,14.1,27.7C1718.6,93.9,1719.1,94.8,1719.6,95.7z"/>
		<path class="st0" d="M2084.2,100.6c0,0.7,0,1.3,0,1.8c0,10.6,0,21.3,0,31.9c0,0.4,0,0.9,0,1.3c0,1.1-0.1,1.1-1.2,1.1
			c-5.2,0-10.4,0-15.5,0c-0.2,0-0.3,0-0.5,0c-0.5,0-0.7-0.2-0.7-0.7c0-0.3,0-0.7,0-1c0-23.2,0-46.3,0-69.5c0-0.2,0-0.4,0-0.7
			c0-1.1,0.1-1.1,1.2-1.1c4.5,0,8.9,0,13.4,0c0.8,0,1.3,0.3,1.7,1c2.9,4.6,5.8,9.1,8.7,13.7c4.3,6.8,8.6,13.5,12.9,20.3
			c0.2,0.4,0.4,1,0.8,0.9c0.6-0.2,0.3-0.8,0.3-1.3c0-10.8,0-21.6,0-32.4c0-0.6,0-1.1,0.1-1.7c0-0.2,0.2-0.4,0.4-0.4
			c0.3,0,0.6,0,0.8,0c5.1,0,10.2,0,15.4,0c0.2,0,0.4,0,0.7,0c0.4,0,0.6,0.3,0.6,0.7c0,0.3,0,0.7,0,1c0,23.2,0,46.4,0,69.6
			c0,1.8,0.1,1.7-1.7,1.7c-4.1,0-8.2,0-12.4,0c-0.3,0-0.7,0-1,0c-0.4,0-0.6-0.1-0.8-0.4c-0.2-0.3-0.4-0.7-0.6-1
			c-7.2-11.2-14.3-22.4-21.5-33.6C2085,101.4,2084.9,100.9,2084.2,100.6z"/>
		<path class="st1" d="M1947.7,89c0.8-0.9,1.6-1.9,2.3-2.8c5.7-7,11.4-14,17.1-20.9c0.3-0.3,0.6-0.7,0.8-1c0.3-0.4,0.7-0.5,1.2-0.5
			c0.3,0,0.7,0,1,0c6.1,0,12.1,0,18.2,0c0.5,0,1.1,0,1.7,0c-0.1,0.6-0.4,0.9-0.7,1.2c-2.6,3.2-5.3,6.3-8,9.4c-5,5.9-10,11.8-15,17.7
			c-0.1,0.2-0.3,0.4-0.4,0.5c-0.4,0.4-0.4,0.8-0.1,1.3c2.2,3.7,4.4,7.4,6.6,11c5.9,10,11.8,20,17.8,30c0.3,0.5,0.7,0.9,0.7,1.4
			c-0.3,0.3-0.7,0.2-1,0.2c-6.1,0-12.2,0-18.4,0c-0.3,0-0.6,0-0.8,0c-0.3,0-0.5-0.1-0.7-0.4c-0.2-0.4-0.4-0.8-0.7-1.2
			c-5.1-9.1-10.2-18.1-15.3-27.2c-0.2-0.3-0.3-0.6-0.5-0.8c-0.5,0-0.6,0.3-0.8,0.6c-1.6,1.8-3.2,3.7-4.8,5.5c-0.5,0.5-0.6,1-0.6,1.7
			c0,3.1,0,6.2,0,9.3c0,3.6,0,7.1,0,10.7c0,0.4,0,0.9,0,1.3c0,0.2-0.2,0.4-0.4,0.4c-0.3,0-0.6,0-0.8,0c-5.1,0-10.1,0-15.2,0
			c-0.2,0-0.3,0-0.5,0c-0.6,0-0.7-0.2-0.7-0.7c0-0.3,0-0.7,0-1c0-23.2,0-46.4,0-69.6c0-0.1,0-0.1,0-0.2c0-1.5,0-1.5,1.5-1.5
			c5,0,9.9,0,14.9,0c0.2,0,0.4,0,0.7,0c0.6,0,0.7,0.2,0.7,0.7c0,0.4,0,0.9,0,1.3c0,7.2,0,14.4,0,21.5c0,0.5,0,1.1,0,1.6
			C1947.5,88.9,1947.6,88.9,1947.7,89z"/>
		<path class="st0" d="M1997.3,89.5c0-7.9,0-15.8,0-23.7c0-2.2-0.1-2,2-2c4.7,0,9.4,0,14,0c0.3,0,0.6,0,0.8,0c1.1,0,1.1,0,1.1,1.1
			c0,0.4,0,0.9,0,1.3c0,14.6,0,29.3,0,43.9c0,1.7,0.1,3.3,0.7,4.9c1.2,3.6,3.6,5.6,7.4,6.1c1.8,0.3,3.4,0.1,5.1-0.4
			c2.3-0.7,4-2.2,5.1-4.3c0.7-1.3,1.1-2.7,1.2-4.1c0.1-1.1,0.1-2.1,0.1-3.2c0-14.2,0-28.4,0-42.6c0-0.9-0.4-1.9,0.2-2.6
			c0.6-0.7,1.7-0.3,2.5-0.3c4.5,0,8.9,0,13.4,0c0.4,0,0.9,0,1.3,0c0.3,0,0.4,0.2,0.4,0.4c0,0.3,0,0.7,0,1c0,15.5,0,31.1,0,46.6
			c0,10.5-6.3,19.5-16.2,23.4c-4.4,1.8-9,2.3-13.8,2.1c-4.4-0.2-8.5-1.3-12.3-3.4c-6.9-3.9-11.2-9.7-12.7-17.5c-0.4-2-0.5-4-0.5-6
			C1997.3,103.4,1997.3,96.4,1997.3,89.5z"/>
		<path class="st0" d="M1822.6,89.4c0,7.2,0,14.4,0,21.5c0,2.5-0.2,5-0.9,7.4c-2.2,7.7-7.1,13.1-14.3,16.4
			c-4.7,2.1-9.7,2.8-14.8,2.5c-4.8-0.3-9.3-1.6-13.4-4.2c-6.5-4.1-10.3-10-11.5-17.5c-0.2-1.5-0.3-3-0.3-4.5c0-15.2,0-30.4,0-45.6
			c0-1.8-0.1-1.7,1.7-1.7c4.8,0,9.6,0,14.4,0c0.2,0,0.4,0,0.7,0c1.1,0,1.2,0.1,1.2,1.3c0,0.4,0,0.9,0,1.3c0,14.5,0,29,0,43.6
			c0,1.4,0,2.9,0.4,4.3c0.8,3.6,3.5,6.6,7.9,7c1.4,0.1,2.8,0.1,4.1-0.3c3.9-1,6-3.6,6.8-7.4c0.3-1.3,0.3-2.6,0.3-4
			c0-14.5,0-29,0-43.6c0-2.6-0.3-2.2,2.2-2.3c4.7,0,9.4,0,14,0c1.6,0,1.7-0.1,1.7,1.6C1822.6,73.4,1822.6,81.4,1822.6,89.4z"/>
		<path class="st0" d="M2174.7,83c-0.4,0-0.6-0.3-0.8-0.6c-2.4-2-5.2-3-8.2-3.4c-2.4-0.3-4.8-0.4-7.2,0c-1.6,0.3-3,0.8-4.2,1.8
			c-1,0.9-1.7,2-2.1,3.3c-0.5,2.1,0.1,3.7,1.7,5.1c1.2,1,2.6,1.5,4.1,1.7c3.2,0.5,6.5,0.9,9.8,1.4c2.8,0.4,5.6,1.1,8.2,2.2
			c5.6,2.4,9.1,6.5,10.4,12.4c0.8,3.5,1,7.1,0.5,10.8c-0.8,5.5-3.4,9.9-7.8,13.4c-3.5,2.7-7.5,4.4-11.8,5.3
			c-2.2,0.5-4.5,0.8-6.8,0.8c-4.7,0.1-9.4-0.1-13.9-1.1c-5.4-1.2-10.3-3.6-14.3-7.5c-0.2-0.2-0.5-0.5-0.7-0.7
			c-0.1-0.1-0.1-0.2-0.2-0.3c0.1-0.3,0.4-0.5,0.6-0.8c3.3-3.3,6.5-6.5,9.8-9.8c0.2-0.2,0.4-0.4,0.6-0.6c0.2-0.2,0.4-0.1,0.6,0
			c0.1,0.1,0.2,0.1,0.3,0.2c2.7,2.3,5.9,3.4,9.2,4c3.2,0.6,6.4,0.8,9.6,0.4c1.3-0.2,2.5-0.4,3.7-1c3.4-1.6,4.7-5.5,2.8-8.7
			c-0.5-0.9-1.3-1.5-2.2-2c-1.2-0.6-2.4-0.8-3.7-1c-3.3-0.5-6.6-0.9-9.9-1.4c-2.8-0.5-5.5-1.3-8.1-2.6c-4.8-2.4-8-6.1-9.3-11.4
			c-1.1-4.3-1.2-8.6-0.1-12.9c1.5-6,5.1-10.4,10.4-13.5c2.8-1.6,5.8-2.6,8.9-3.1c3.6-0.6,7.2-0.7,10.8-0.4c3.1,0.3,6.2,0.8,9.2,1.7
			c3.8,1.2,7.2,3.2,10.2,5.9c0.2,0.2,0.4,0.4,0.6,0.6c0.2,0.2,0.3,0.5,0,0.7c-0.2,0.2-0.4,0.4-0.6,0.6c-3.2,3.2-6.4,6.4-9.6,9.6
			C2175.2,82.6,2175,82.9,2174.7,83z"/>
		<path class="st0" d="M1883.8,71.8c-3.7,3.7-7.4,7.4-11.2,11.2c-0.2,0-0.4-0.3-0.7-0.5c-2.1-1.8-4.5-2.9-7.2-3.3s-5.4-0.6-8.2-0.1
			c-1.5,0.2-2.9,0.8-4.1,1.7c-1.4,1.1-2.2,2.5-2.3,4.3c-0.2,2,0.7,3.6,2.3,4.7c1.1,0.8,2.4,1.2,3.7,1.4c3.3,0.5,6.6,0.9,9.9,1.4
			c2.9,0.4,5.8,1.2,8.5,2.4c5.6,2.6,8.9,7.1,10,13.1c0.6,3.2,0.8,6.4,0.4,9.6c-0.7,5.3-3.1,9.7-7.2,13.1c-3.2,2.7-6.9,4.4-11,5.4
			c-3.3,0.8-6.6,1.2-9.9,1.1c-4.1,0-8.1-0.2-12.1-1.1c-5.3-1.2-10-3.5-14-7.1c-0.4-0.3-0.7-0.7-1.1-1.1c-0.2-0.2-0.2-0.4,0-0.6
			s0.4-0.4,0.6-0.6c3.2-3.2,6.5-6.5,9.7-9.7c0.2-0.2,0.4-0.4,0.6-0.6s0.4-0.2,0.6,0c0.1,0.1,0.2,0.1,0.3,0.2c2.6,2.2,5.8,3.4,9.1,4
			c3.2,0.6,6.5,0.9,9.8,0.4c1.3-0.2,2.6-0.5,3.9-1c3.4-1.6,4.6-5.7,2.5-8.9c-0.5-0.8-1.3-1.4-2.1-1.8c-1-0.5-2.1-0.7-3.2-0.9
			c-2.7-0.4-5.4-0.7-8.1-1.1c-3.7-0.5-7.2-1.3-10.5-3c-2.6-1.3-4.9-3.1-6.5-5.6c-1.4-2-2.2-4.2-2.7-6.6c-0.8-4.1-0.9-8.2,0.2-12.2
			c1.6-5.8,5.1-10.2,10.3-13.2c2.9-1.7,6.1-2.7,9.4-3.2c6.3-1,12.4-0.6,18.5,1.1c4.3,1.2,8,3.3,11.3,6.3
			C1883.4,71.3,1883.7,71.5,1883.8,71.8z"/>
		<path class="st0" d="M2230.5,108.2c0,8.9,0,17.8,0,26.7c0,2,0.1,1.9-1.9,1.9c-4.7,0-9.5,0-14.2,0c-0.4,0-0.9,0-1.3,0
			c-0.3,0-0.5-0.2-0.5-0.5c0-0.6,0-1.1,0-1.7c0-17.5,0-35.1,0-52.6c0-2.4,0.3-2.2-2.1-2.2c-4.8,0-9.6,0-14.4,0c-1.5,0-1.5,0-1.5-1.4
			c0-4.4,0-8.8,0-13.2c0-0.3,0-0.6,0-0.8c0-0.3,0.2-0.5,0.5-0.5c0.4,0,0.8,0,1.2,0c16.8,0,33.5,0,50.3,0c0.2,0,0.3,0,0.5,0
			c1.3,0,1.3,0,1.3,1.3c0,4.5,0,8.9,0,13.4c0,0.2,0,0.4,0,0.7c0,0.5-0.2,0.6-0.7,0.7c-0.4,0-0.9,0-1.3,0c-4.6,0-9.2,0-13.9,0
			c-0.4,0-0.9,0-1.3,0c-0.3,0-0.5,0.2-0.5,0.5c0,0.5,0,1,0,1.5C2230.5,90.6,2230.5,99.4,2230.5,108.2z"/>
		<path class="st2" d="M1966.2,216.7c-92.9,0-185.7,0-278.6,0c-0.4,0-0.9,0-1.3,0c-1.4,0-1.4,0-1.4-1.5c0-0.2,0-0.3,0-0.5
			c0-0.7,0.2-0.9,0.9-0.9c0.4,0,0.8,0,1.2,0c186.2,0,372.4,0,558.6,0c0.1,0,0.2,0,0.3,0c1.9,0,1.7-0.1,1.7,1.9c0,0.2,0,0.3,0,0.5
			c0,0.3-0.2,0.5-0.5,0.6c-0.2,0-0.4,0-0.7,0c-0.5,0-1,0-1.5,0C2152,216.7,2059.1,216.7,1966.2,216.7z"/>
		<path class="st0" d="M1896.9,100.3c0-11.5,0-23,0-34.6c0-2.3-0.2-2,2.1-2c4.8,0,9.6,0,14.4,0c1.5,0,1.5,0,1.5,1.5
			c0,0.3,0,0.6,0,0.8c0,22.8,0,45.6,0,68.5c0,2.5,0.2,2.3-2.2,2.3c-4.6,0-9.2,0-13.9,0c-0.4,0-0.9,0-1.3,0c-0.3,0-0.5-0.2-0.5-0.5
			c0-0.5,0-1,0-1.5C1896.9,123.3,1896.9,111.8,1896.9,100.3z"/>
		<path class="st0" d="M1734.8,176.9c0-4.3,0-8.7,0-13c0-0.4,0-0.9,0-1.3c0-0.3,0.2-0.5,0.5-0.5s0.7,0,1,0c1.3,0,2.7,0,4,0
			c1.9,0,1.8-0.1,1.8,1.8c0,2.6,0,5.2,0,7.8c0,0.4,0,0.9,0,1.3c0,0.3,0.2,0.5,0.5,0.5c0.1,0,0.1,0,0.2,0c2.1,0,4.2,0,6.3,0
			c0.4,0,0.6-0.2,0.6-0.6c0-0.4,0-0.8,0-1.2c0-2.6,0-5.2,0-7.8c0-0.4,0-0.8,0-1.2c0-0.6,0.1-0.8,0.8-0.8c1.9,0,3.9,0,5.8,0
			c0.4,0,0.6,0.2,0.6,0.6c0,0.4,0,0.8,0,1.2c0,8.8,0,17.6,0,26.4c0,0.3,0,0.6,0,0.8c0,0.9-0.1,0.9-1,0.9c-1.8,0-3.6,0-5.3,0
			c-0.9,0-1-0.1-1-1.1c0-2.9,0-5.8,0-8.7c0-0.4,0-0.9,0-1.3c0-0.6-0.2-0.8-0.8-0.8c-2,0-4,0-6,0c-0.8,0-0.9,0.1-0.9,0.9
			c0,0.4,0,0.8,0,1.2c0,2.7,0,5.3,0,8c0,0.4,0,0.8,0,1.2s-0.2,0.7-0.6,0.7c-2.1,0-4.1,0-6.2,0c-0.3,0-0.5-0.2-0.5-0.5
			c0-0.4,0-0.9,0-1.3C1734.8,185.7,1734.8,181.3,1734.8,176.9z"/>
		<path class="st0" d="M1815.2,176.9c0-4.3,0-8.7,0-13c0-0.4,0-0.9,0-1.3c0-0.3,0.2-0.5,0.5-0.5s0.7,0,1,0c5.7,0,11.5,0,17.2,0
			c0.3,0,0.7,0,1,0s0.5,0.2,0.5,0.5c0,1.8,0,3.7,0,5.5c0,0.3-0.2,0.5-0.5,0.5c-0.4,0-0.9,0-1.3,0c-3.1,0-6.1,0-9.2,0
			c-0.4,0-0.9,0-1.3,0c-0.3,0-0.5,0.2-0.5,0.5c0,1.3,0,2.6,0,3.8c0,0.4,0.3,0.6,0.7,0.6c0.4,0,0.9,0,1.3,0c2.7,0,5.5,0,8.2,0
			c0.8,0,0.9,0.1,1,1c0,1.4,0,2.9,0,4.3c0,1.1-0.1,1.2-1.1,1.2c-2.6,0-5.2,0-7.9,0c-0.4,0-0.9,0-1.3,0c-0.7,0-0.8,0.2-0.8,0.8
			c0,1.2,0,2.4,0,3.7c0,0.6,0.2,0.8,0.8,0.8c3.3,0,6.7,0,10,0c0.5,0,1,0,1.5,0c0.4,0,0.6,0.3,0.6,0.6c0,1.8,0,3.6,0,5.3
			c0,0.4-0.2,0.6-0.6,0.6c-0.3,0-0.7,0-1,0c-5.6,0-11.3,0-16.9,0c-0.3,0-0.6,0-0.8,0c-0.8,0-0.9-0.1-1-1c0-0.4,0-0.8,0-1.2
			C1815.2,185.5,1815.2,181.2,1815.2,176.9z"/>
		<path class="st0" d="M1762.9,172.8c0-2.9,0-5.9,0-8.8c0-0.4,0-0.9,0-1.3c0-0.4,0.3-0.6,0.7-0.6c0.1,0,0.1,0,0.2,0
			c1.9,0,3.8,0,5.7,0c0.7,0,0.8,0.2,0.8,0.8c0,0.4,0,0.9,0,1.3c0,5.5,0,10.9,0,16.4c0,0.6,0,1.2,0.1,1.8c0.3,2,1.7,3.3,3.8,3.3
			c2.1,0,3.6-1.2,3.9-3.1c0.2-0.8,0.2-1.7,0.2-2.5c0-5.1,0-10.1,0-15.2c0-0.4,0-0.8,0-1.2c0-1.6,0-1.6,1.7-1.6c1.6,0,3.2,0,4.8,0
			c0.6,0,0.8,0.2,0.8,0.8c0,0.4,0,0.8,0,1.2c0,5.5,0,11,0,16.5c0,1.3,0,2.6-0.4,3.8c-1.3,4.4-4.3,6.9-8.8,7.7
			c-2,0.4-4.1,0.3-6.1-0.4c-3.8-1.2-6.2-3.7-7.2-7.6c-0.2-0.9-0.2-1.9-0.2-2.8C1762.9,178.3,1762.9,175.6,1762.9,172.8L1762.9,172.8
			z"/>
		<path class="st0" d="M1688.8,183.6c2.2,1.6,4.6,2.1,7.1,2c0.7,0,1.4-0.1,2.1-0.4c1.3-0.4,1.9-1.4,1.7-2.8
			c-0.1-0.8-0.5-1.3-1.2-1.7c-0.6-0.3-1.2-0.4-1.8-0.4c-1.5-0.2-3-0.4-4.5-0.7c-0.9-0.2-1.8-0.5-2.7-0.9c-1.8-0.9-3.1-2.4-3.6-4.3
			c-0.5-1.8-0.6-3.6-0.1-5.4c0.8-3.5,3.2-5.5,6.5-6.5c0.9-0.3,1.8-0.5,2.8-0.5c2-0.1,3.9-0.1,5.8,0.4s3.7,1.3,5.1,2.6
			c0.4,0.3,0.4,0.5,0.1,0.8c-1.4,1.4-2.7,2.8-4,4.1c-0.5,0-0.7-0.3-1-0.5c-1.1-0.7-2.2-1-3.5-1.1c-0.7,0-1.5,0-2.2,0
			c-1,0.1-1.9,0.5-2.5,1.5c-0.7,1.1-0.3,2.4,0.8,3c0.5,0.3,1.1,0.4,1.8,0.5c1.5,0.2,3,0.4,4.5,0.7c0.9,0.2,1.8,0.5,2.7,0.9
			c1.9,0.9,3.2,2.3,3.8,4.4c0.5,1.8,0.7,3.7,0.2,5.6c-0.5,2-1.5,3.6-3.1,4.8c-1.5,1.2-3.3,1.9-5.2,2.2c-3.2,0.5-6.3,0.4-9.4-0.5
			c-1.7-0.5-3.3-1.4-4.6-2.7c-0.3-0.3-0.3-0.5,0-0.9C1686,186.4,1687.4,185,1688.8,183.6z"/>
		<path class="st0" d="M1725.8,170c-0.5-0.4-0.9-0.7-1.2-0.9c-1.1-0.7-2.2-0.9-3.5-0.5c-1,0.3-1.7,1-2.1,2c-0.2,0.5-0.3,1.1-0.4,1.6
			c-0.4,3.2-0.4,6.4,0,9.6c0,0.3,0.1,0.7,0.2,1c0.7,3.1,4,3.5,5.8,2.2c0.4-0.3,0.8-0.6,1.3-0.9c1.6,1.6,3.2,3.2,4.8,4.8
			c-1.5,1.6-3.2,2.6-5.2,3c-2.3,0.5-4.5,0.5-6.8-0.2c-4.3-1.4-6.9-4.4-7.4-8.9c-0.4-3.8-0.4-7.7,0-11.5c0.6-5.1,4.7-9,9.8-9.3
			c1.7-0.1,3.3-0.1,5,0.4c1.6,0.5,3,1.3,4.3,2.5c0.2,0.2,0.2,0.5,0,0.7C1728.7,166.9,1727.3,168.4,1725.8,170z"/>
		<path class="st0" d="M1791,176.9c0-4.3,0-8.7,0-13c0-0.4,0-0.9,0-1.3c0-0.4,0.3-0.6,0.7-0.6c2,0,4,0,6,0c0.5,0,0.7,0.2,0.7,0.7
			c0,0.4,0,0.9,0,1.3c0,6.4,0,12.8,0,19.2c0,0.5,0,1,0,1.5c0,0.3,0.2,0.5,0.5,0.5c0.4,0,0.9,0,1.3,0c3,0,5.9,0,8.9,0
			c0.4,0,0.8,0,1.2,0c0.4,0,0.7,0.2,0.7,0.6c0,1.8,0,3.6,0,5.3c0,0.5-0.2,0.6-0.8,0.7c-0.2,0-0.4,0-0.7,0c-5.7,0-11.4,0-17,0
			c-1.4,0-1.5,0-1.5-1.5C1791,186,1791,181.5,1791,176.9z"/>
		<path class="st0" d="M1870.2,185.2c0-0.6,0-1.1,0-1.7c0-6.5,0-13,0-19.5c0-0.5,0-1,0-1.5c0-0.3,0.2-0.5,0.5-0.5c0.2,0,0.3,0,0.5,0
			c2.3,0,2.2-0.3,2.2,2.1c0,8.6,0,17.1,0,25.7c0,0.4,0,0.8,0,1.2c0,0.8-0.1,0.9-1,0.9c-2.4,0-1.8,0.3-3.1-1.6
			c-4.5-6.8-9-13.5-13.5-20.3c-0.3-0.5-0.7-1-1-1.5c-0.6,0.1-0.3,0.6-0.3,0.8c0,6.7,0,13.4,0,20c0,0.6,0,1.2,0,1.8
			c0,0.5-0.2,0.7-0.7,0.7c-0.6,0-1.2,0-1.8,0c-0.4,0-0.6-0.2-0.6-0.6c0-0.3,0-0.6,0-0.8c0-9,0-18,0-27c0-0.2,0-0.4,0-0.7
			c0-0.5,0.2-0.7,0.7-0.7c0.2,0,0.3,0,0.5,0c2,0,1.7-0.2,2.8,1.5c4.5,6.8,9.1,13.6,13.6,20.4c0.3,0.5,0.7,1,1,1.5
			C1870,185.3,1870.1,185.3,1870.2,185.2z"/>
		<path class="st0" d="M2052.3,249.1c0,0.6,0,1.1,0,1.7c0,6.3,0,12.6,0,18.9c0,0.4,0,0.9,0,1.3c0,0.8-0.2,0.9-1,0.9
			c-2.4,0-2.2,0.3-2.2-2.1c0-8.5,0-17,0-25.5c0-2-0.1-1.8,1.8-1.8c0.9,0,1.4,0.3,1.9,1c4.5,6.9,9.1,13.7,13.7,20.6
			c0.3,0.5,0.7,1,1.1,1.5c0.4-0.4,0.2-0.8,0.2-1.2c0-6.6,0-13.2,0-19.9c0-2.3-0.2-2,2.1-2c0.2,0,0.3,0,0.5,0c0.3,0,0.5,0.3,0.5,0.6
			s0,0.7,0,1c0,8.7,0,17.5,0,26.2c0,1.7,0.1,1.7-1.6,1.7c-0.2,0-0.4,0-0.7,0c-0.5,0-0.8-0.2-1.1-0.6s-0.6-0.8-0.8-1.2
			c-4.4-6.6-8.7-13.2-13.1-19.7c-0.3-0.4-0.6-0.9-0.9-1.3C2052.5,249,2052.4,249.1,2052.3,249.1z"/>
		<path class="st0" d="M2141.7,178.4c0,0.7,0.4,1.1,0.6,1.6c1.7,3.3,3.4,6.6,5.2,9.9c0.2,0.3,0.4,0.7,0.5,1c0.4,0.9,0.4,1-0.5,1
			c-0.6,0-1.2,0-1.8,0c-0.7,0-1-0.3-1.3-0.8c-1.3-2.5-2.5-5-3.8-7.4c-0.7-1.4-1.4-2.8-2.1-4.2c-0.3-0.6-0.7-0.9-1.4-0.9
			c-1.8,0-3.6,0-5.3,0c-0.7,0-0.8,0.1-0.8,0.8c0,1.3,0,2.7,0,4c0,2.3,0,4.6,0,6.8c0,0.4,0,0.8,0,1.2c0,0.2-0.2,0.4-0.4,0.4
			c-0.5,0-1,0.1-1.5,0c-1.3,0-1.3,0-1.3-1.3c0-9.1,0-18.3,0-27.4c0-0.2,0-0.4,0-0.7s0.2-0.5,0.5-0.6c0.3,0,0.6,0,0.8,0
			c3.3,0,6.6,0,9.9,0c1.1,0,2.1,0.1,3.1,0.4c4.2,1.1,6.6,5,5.9,9.3c-0.5,3.1-2.2,5.2-5.1,6.2C2142.4,178.1,2142,178.3,2141.7,178.4z
			"/>
		<path class="st0" d="M1919,176.9c0-4.3,0-8.7,0-13c0-0.4,0-0.9,0-1.3c0-0.3,0.2-0.5,0.5-0.5s0.6,0,0.8,0c2.8,0,5.7,0,8.5,0
			c1.1,0,2.2,0.1,3.3,0.4c3.8,0.9,6.2,3.3,7.1,7.2c0.2,1.1,0.4,2.2,0.4,3.3c0,2.6,0,5.2,0,7.8c0,1.6-0.3,3.1-0.7,4.6
			c-1,3.4-3.3,5.4-6.7,6.3c-1,0.2-2,0.4-3,0.4c-3,0-6,0-9,0c-0.2,0-0.4,0-0.7,0c-0.3,0-0.5-0.2-0.5-0.5c0-0.4,0-0.9,0-1.3
			C1919,185.7,1919,181.3,1919,176.9z"/>
		<path class="st0" d="M1986.5,178.5c0,0.6,0.4,1,0.6,1.5c1.9,3.6,3.8,7.2,5.6,10.8c0.6,1.1,0.4,1.2-0.6,1.1c-0.7,0-1.3,0-2,0
			c-0.4,0-0.6-0.2-0.8-0.5c-0.3-0.5-0.6-1.1-0.9-1.6c-1.6-3.2-3.3-6.4-4.9-9.6c-0.2-0.3-0.3-0.7-0.5-1s-0.4-0.5-0.8-0.5
			c-1.9,0-3.9,0-5.8,0c-0.6,0-0.7,0.2-0.8,0.8c0,0.4,0,0.8,0,1.2c0,3.1,0,6.2,0,9.3c0,0.4,0,0.9,0,1.3c0,0.4-0.3,0.6-0.7,0.6
			c-0.6,0-1.2,0-1.8,0c-0.4,0-0.6-0.2-0.6-0.6c0-0.4,0-0.8,0-1.2c0-8.8,0-17.6,0-26.4c0-0.3,0-0.7,0-1c0-0.6,0.2-0.8,0.8-0.8
			c3.7,0,7.3,0,11,0c1.2,0,2.3,0.2,3.4,0.7c2.7,1.1,4.3,3,4.9,5.9c0.3,1.3,0.2,2.7-0.1,4c-0.6,2.5-2.1,4.2-4.5,5.3
			C1987.5,178,1987,178.1,1986.5,178.5z"/>
		<path class="st0" d="M2114,178.5c2.3,4.5,4.6,8.8,6.9,13.2c-0.4,0.5-0.8,0.3-1.1,0.3s-0.7,0-1,0c-0.4,0-0.8,0-1.2-0.1
			c-0.2,0-0.4-0.2-0.5-0.4c-0.2-0.3-0.4-0.7-0.5-1c-1.8-3.4-3.5-6.8-5.3-10.2c-0.2-0.3-0.3-0.6-0.5-0.9c-0.2-0.4-0.5-0.7-1-0.7
			c-1.9,0-3.8,0-5.7,0c-0.7,0-0.8,0.1-0.8,0.8c0,2.6,0,5.2,0,7.8c0,1.3,0,2.6,0,3.8c0,0.6-0.1,0.8-0.8,0.8c-0.1,0-0.2,0-0.3,0
			c-2.1,0-2,0.3-2-1.9c0-8.7,0-17.4,0-26c0-0.3,0-0.7,0-1c0-0.8,0.1-0.9,1-0.9c3.5,0,7,0,10.5,0c1.2,0,2.5,0.2,3.6,0.6
			c3,1.2,4.8,3.4,5.1,6.6c0.1,1.2,0.1,2.3-0.2,3.5c-0.6,2.4-2.2,4.1-4.5,5.1C2115.1,178.1,2114.6,178.2,2114,178.5z"/>
		<path class="st0" d="M2218.8,177c0-4.3,0-8.7,0-13c0-0.4,0-0.9,0-1.3c0-0.4,0.3-0.6,0.6-0.6c2.9,0,2.6-0.4,2.6,2.4
			c0,3.1,0,6.1,0,9.2c0,0.4,0,0.9,0,1.3c0,0.2,0.2,0.4,0.4,0.4c0.3,0,0.6,0,0.8,0c3.8,0,7.7,0,11.5,0c0.3,0,0.6,0,0.8,0
			s0.4-0.2,0.4-0.4c0-0.4,0-0.9,0-1.3c0-3.2,0-6.5,0-9.7c0-0.4,0-0.9,0-1.3c0-0.3,0.2-0.5,0.5-0.5c0.1,0,0.2,0,0.3,0
			c2.6,0,2.4-0.3,2.4,2.3c0,8.6,0,17.1,0,25.7c0,2.2,0.1,2-2,2c-0.2,0-0.4,0-0.7,0s-0.5-0.2-0.6-0.5c0-0.4,0-0.9,0-1.3
			c0-3.3,0-6.7,0-10c0-0.4,0-0.9,0-1.3c0-0.3-0.2-0.4-0.4-0.4c-0.3,0-0.6,0-0.8,0c-3.8,0-7.7,0-11.5,0c-0.3,0-0.6,0-0.8,0
			s-0.4,0.2-0.4,0.4c0,0.4,0,0.9,0,1.3c0,3.3,0,6.7,0,10c0,0.4,0,0.9,0,1.3c0,0.2-0.2,0.4-0.4,0.4c-0.4,0-0.8,0-1.2,0
			c-1.7,0-1.6,0.1-1.6-1.6C2218.8,185.9,2218.8,181.4,2218.8,177z"/>
		<path class="st0" d="M2019.6,177c0,1.8,0,3.6,0,5.3c0,1.1-0.2,2.1-0.5,3.1c-0.7,2.4-2.3,4-4.4,5.3c-3.7,2.2-9.2,1.8-12.6-1.2
			c-2.1-1.9-3-4.3-3.2-7.1c-0.1-1.4-0.1-2.8-0.1-4.2c0-2.1,0-4.1,0-6.2c0-1.1,0.2-2.1,0.4-3.1c0.5-2.3,1.9-4,3.8-5.3
			c3.7-2.6,10-2.7,13.8,1.2c1.7,1.8,2.5,3.9,2.6,6.3C2019.5,173,2019.5,175,2019.6,177C2019.7,177,2019.7,177,2019.6,177z"/>
		<path class="st3" d="M2074.9,176.8c0-4.3,0-8.6,0-12.8c0-0.3,0-0.7,0-1c0-0.8,0.2-0.9,0.9-0.9c0.3,0,0.6,0,0.8,0
			c5.1,0,10.2,0,15.4,0c0.3,0,0.7,0,1,0s0.5,0.2,0.5,0.5c0.3,2.2,0.1,2.4-2.1,2.4c-3.9,0-7.8,0-11.7,0c-0.3,0-0.7,0-1,0
			c-0.4,0-0.6,0.3-0.6,0.6c0,0.2,0,0.4,0,0.7c0,2.6,0,5.2,0,7.8c0,0.3,0,0.6,0,0.8s0.2,0.4,0.4,0.4c0.4,0,0.9,0,1.3,0
			c3.2,0,6.3,0,9.5,0c0.4,0,0.8,0,1.2,0c0.3,0,0.5,0.2,0.5,0.5c0,0.1,0,0.1,0,0.2c0,2.5,0.3,2.2-2.1,2.2c-3.1,0-6.2,0-9.4,0
			c-0.3,0-0.7,0-1,0c-0.4,0-0.6,0.2-0.6,0.6c0,0.2,0,0.3,0,0.5c0,2.8,0,5.7,0,8.5c0,0.2,0,0.4,0,0.7c0,0.2,0.2,0.4,0.4,0.4
			c0.4,0,0.9,0,1.3,0c3.9,0,7.8,0,11.7,0c0.4,0,0.9,0,1.3,0c0.3,0,0.5,0.2,0.5,0.5c0,0.1,0,0.2,0,0.3c0,2.2,0.2,2-1.9,2
			c-5.1,0-10.1,0-15.2,0c-1.5,0-1.5,0-1.5-1.5C2074.9,185.9,2074.9,181.3,2074.9,176.8z"/>
		<path class="st3" d="M2155.1,177c0-4.3,0-8.6,0-12.8c0-0.3,0-0.7,0-1c0-1,0.1-1.1,1.2-1.1c5.5,0,10.9,0,16.4,0
			c0.2,0,0.5,0,0.7,0.1c0.1,0,0.3,0.2,0.3,0.3c0.1,0.1,0.1,0.2,0.1,0.3c0,2.5,0.3,2.2-2,2.2c-3.8,0-7.7,0-11.5,0c-0.4,0-0.9,0-1.3,0
			c-0.2,0-0.4,0.2-0.4,0.4c0,0.3,0,0.6,0,0.8c0,2.6,0,5.2,0,7.8c0,0.3,0,0.6,0,0.8s0.2,0.4,0.4,0.4c0.4,0,0.9,0,1.3,0
			c3.1,0,6.2,0,9.4,0c0.4,0,0.8,0,1.2,0c0.6,0,0.7,0.2,0.7,0.7c0,2.5,0.3,2.2-2,2.2c-3.1,0-6.1,0-9.2,0c-0.4,0-0.9,0-1.3,0
			c-0.3,0-0.5,0.2-0.5,0.5c0,0.2,0,0.4,0,0.7c0,2.8,0,5.6,0,8.3c0,0.2,0,0.4,0,0.7s0.2,0.4,0.4,0.4c0.4,0,0.9,0,1.3,0
			c3.9,0,7.8,0,11.7,0c0.4,0,0.9,0,1.3,0c0.3,0,0.5,0.2,0.5,0.5c0,0.1,0,0.1,0,0.2c0,2.5,0.3,2.2-2.1,2.2c-4.9,0-9.8,0-14.7,0
			c-1.9,0-1.9,0.1-1.9-1.8C2155.1,185.8,2155.1,181.4,2155.1,177z"/>
		<path class="st0" d="M1973.8,257.2c-0.1,2.2,0,4.4-0.3,6.6c-0.5,4-2.8,6.5-6.4,7.8c-4.1,1.4-7.9,0.7-11.1-2.3
			c-1.6-1.5-2.4-3.4-2.6-5.6c-0.4-4.2-0.3-8.4,0-12.7c0.4-5.2,4.7-8,8.3-8.5c2.1-0.3,4.1-0.2,6.1,0.7c3.3,1.5,5.4,3.8,5.8,7.5
			C1973.9,252.8,1973.8,255,1973.8,257.2z"/>
		<path class="st0" d="M1893.9,176.9c0-4.3,0-8.7,0-13c0-0.4,0-0.9,0-1.3c0-0.3,0.2-0.5,0.5-0.5s0.7,0,1,0c5.1,0,10.2,0,15.4,0
			c0.3,0,0.7,0,1,0s0.5,0.2,0.5,0.5c0.3,2.2,0.1,2.4-2,2.4c-3.7,0-7.5,0-11.2,0c-0.4,0-0.8,0-1.2,0c-0.9,0-0.9,0.1-0.9,1
			c0,2.8,0,5.7,0,8.5c0,0.8,0.1,0.9,1,1c0.4,0,0.9,0,1.3,0c3.2,0,6.5,0,9.7,0c1.1,0,1.1,0.1,1.1,1.2c0,0.3,0,0.7,0,1
			c0,0.6-0.1,0.7-0.8,0.7c-3.5,0-6.9,0-10.4,0c-0.4,0-0.9,0-1.3,0c-0.3,0-0.5,0.2-0.5,0.5s0,0.6,0,0.8c0,2.7,0,5.3,0,8
			c0,0.2,0,0.4,0,0.7c0,0.4,0.2,0.6,0.6,0.6s0.9,0,1.3,0c3.8,0,7.7,0,11.5,0c0.4,0,0.9,0,1.3,0c0.3,0,0.5,0.2,0.5,0.5
			c0,0.1,0,0.1,0,0.2c0,2.5,0.3,2.2-2,2.2c-4.8,0-9.7,0-14.5,0c-0.4,0-0.9,0-1.3,0c-0.3,0-0.5-0.2-0.5-0.5c0-0.4,0-0.9,0-1.3
			C1893.9,185.7,1893.9,181.3,1893.9,176.9z"/>
		<path class="st0" d="M1947.3,176.8c0-4.2,0-8.5,0-12.7c0-0.4,0-0.9,0-1.3c0-0.6,0.2-0.7,0.8-0.8c0.2,0,0.4,0,0.7,0
			c5.2,0,10.4,0,15.5,0c1.5,0,1.5,0,1.5,1.5c0,0.2,0,0.4,0,0.7c0,0.7-0.1,0.8-0.8,0.8c-2.3,0-4.6,0-6.8,0c-2.2,0-4.5,0-6.7,0
			c-0.9,0-1,0.1-1,0.9c0,2.9,0,5.8,0,8.7c0,0.7,0.1,0.9,0.9,0.9c3.5,0,6.9,0,10.4,0c0.4,0,0.9,0,1.3,0c0.2,0,0.4,0.2,0.4,0.4
			c0,0.4,0.1,0.9,0,1.3c0,1.1,0,1.1-1.1,1.1c-3.3,0-6.7,0-10,0c-0.4,0-0.9,0-1.3,0c-0.3,0-0.5,0.2-0.6,0.5c0,0.3,0,0.6,0,0.8
			c0,2.7,0,5.3,0,8c0,0.3,0,0.6,0,0.8c0,0.3,0.2,0.5,0.5,0.5c0.4,0,0.9,0,1.3,0c3.8,0,7.7,0,11.5,0c0.4,0,0.8,0,1.2,0
			c0.6,0,0.7,0.1,0.8,0.8c0,0.5,0,1,0,1.5c0,0.4-0.3,0.6-0.7,0.6c-0.2,0-0.4,0-0.7,0c-5.2,0-10.5,0-15.7,0c-1.5,0-1.5,0-1.5-1.5
			C1947.3,185.9,1947.3,181.3,1947.3,176.8z"/>
		<path class="st0" d="M2024.3,257.1c0-4.4,0-8.8,0-13.2c0-1.5,0-1.5,1.5-1.5c5.1,0,10.2,0,15.4,0c1.5,0,1.5,0,1.5,1.5
			c0,0.3,0,0.6,0,0.8c0,0.3-0.2,0.5-0.5,0.5c-0.4,0-0.9,0-1.3,0c-3.7,0-7.5,0-11.2,0c-0.4,0-0.9,0-1.3,0c-0.6,0-0.8,0.2-0.8,0.8
			c0,2.9,0,5.8,0,8.7c0,0.7,0.1,0.8,0.9,0.8c3.3,0,6.7,0,10,0c2.3,0,2-0.2,2,2.1c0,0.4-0.2,0.6-0.6,0.6s-0.9,0-1.3,0
			c-3.1,0-6.1,0-9.2,0c-0.4,0-0.9,0-1.3,0.1c-0.2,0-0.4,0.2-0.4,0.4c0,0.2,0,0.3,0,0.5c0,2.9,0,5.8,0,8.7c0,0.2,0,0.3,0,0.5
			s0.2,0.4,0.4,0.4c0.4,0,0.9,0,1.3,0c3.8,0,7.7,0,11.5,0c0.4,0,0.9,0,1.3,0c0.3,0,0.5,0.2,0.5,0.5c0.1,2.4,0.3,2.2-1.9,2.2
			c-5,0-9.9,0-14.9,0c-1.6,0-1.5,0-1.5-1.6C2024.3,265.9,2024.3,261.5,2024.3,257.1z"/>
		<path class="st0" d="M1934.5,242.5c1.4,0,2.9,0,4.3,0c1.1,0,2.2,0.1,3.3,0.4c4.6,1.3,6.4,5.1,6.1,9.1c0,0.7-0.2,1.3-0.4,2
			c-1,3.5-3.8,5.4-7.2,5.8c-0.8,0.1-1.6,0.1-2.3,0.1c-2.1,0-4.1,0-6.2,0c-0.6,0-0.8,0.1-0.8,0.8c0,0.4,0,0.8,0,1.2
			c0,2.7,0,5.5,0,8.2c0,0.4,0,0.9,0,1.3c0,0.3-0.2,0.6-0.5,0.6c-0.7,0-1.4,0-2.2,0c-0.3,0-0.4-0.2-0.4-0.5s0-0.7,0-1
			c0-8.8,0-17.6,0-26.4c0-0.3,0-0.6,0-0.8c0-0.5,0.2-0.7,0.7-0.7c0.4,0,0.8,0,1.2,0C1931.6,242.5,1933.1,242.5,1934.5,242.5z"/>
		<path class="st0" d="M2024.8,188.2c0.6-0.8,1.3-1.4,2-2c0.4,0,0.6,0.3,0.9,0.5c3,2.6,6.6,3.1,10.3,2.2c1.9-0.5,3.3-1.6,3.9-3.5
			c0.3-1.1,0.3-2.2,0-3.3c-0.5-1.7-1.6-2.7-3.2-3.1c-1.3-0.3-2.6-0.5-3.9-0.7c-1.1-0.2-2.2-0.4-3.3-0.6c-4.3-1.2-6.2-3.9-5.9-8.2
			c0.2-3.3,2-5.6,5-6.8c1-0.4,2-0.6,3.1-0.7c1.8-0.1,3.6-0.1,5.3,0.4c1.9,0.5,3.5,1.4,4.8,2.7c-0.1,0.5-0.4,0.7-0.7,1
			c-0.4,0.3-0.6,0.9-1.1,0.9c-0.5,0.1-0.8-0.4-1.3-0.7c-2.6-1.7-5.4-2.1-8.3-1.2c-3.4,1-4.1,4.1-3.6,6.4c0.2,1.2,1,2.1,2,2.7
			c1.2,0.7,2.5,1,3.8,1.2c1.4,0.2,2.9,0.4,4.3,0.7c1.2,0.2,2.4,0.7,3.4,1.4c2.4,1.8,3.2,4.3,3,7.2c-0.3,3.3-2.2,5.5-5.3,6.7
			c-1.8,0.7-3.8,0.9-5.7,0.8c-1.3-0.1-2.7-0.1-4-0.5C2028.2,191,2026.3,189.9,2024.8,188.2z"/>
		<path class="st0" d="M1879.6,245.6c-0.5,0.5-1,1-1.5,1.6c-0.3,0.3-0.6,0.2-0.9,0c-2.1-1.8-4.5-2.2-7.2-2.1c-0.6,0-1.2,0.2-1.8,0.3
			c-3.1,1-4.1,3.9-3.4,6.5c0.3,1.1,0.9,1.9,1.9,2.4s2,0.9,3.1,1.1c1.4,0.2,2.9,0.4,4.3,0.7c1.5,0.3,2.9,0.7,4.1,1.7
			c2.4,2,3.1,4.6,2.6,7.5c-0.4,2.6-1.9,4.5-4.2,5.7c-1.2,0.6-2.4,1-3.7,1.1c-2.2,0.2-4.3,0.2-6.5-0.3c-2-0.5-3.8-1.5-5.3-3
			c-0.3-0.3-0.4-0.5-0.1-0.9c0.5-0.6,1.1-1.1,1.6-1.6c0.7,0.2,1,0.7,1.4,1c3.1,2.3,6.6,2.7,10.1,1.5c3.3-1.1,4.2-4.2,3.2-7
			c-0.6-1.6-1.8-2.3-3.4-2.7c-1.4-0.3-2.7-0.5-4.1-0.7c-1-0.2-2.1-0.3-3.1-0.7c-0.7-0.2-1.3-0.5-2-0.9c-1.7-0.9-2.8-2.4-3.2-4.3
			c-0.3-1.5-0.3-3,0.1-4.5c0.6-2.2,2-3.8,4.1-4.8c1.1-0.5,2.3-0.9,3.5-0.9c1.8-0.1,3.7-0.1,5.5,0.4c1.6,0.4,3,1.2,4.2,2.3
			C1879.2,245.2,1879.4,245.3,1879.6,245.6z"/>
		<path class="st0" d="M2211.6,170.5c-0.5,0.3-1,0.1-1.5,0.1s-1.1,0.2-1.5-0.1s-0.4-0.9-0.6-1.3c-2.2-5.6-8.9-5.7-11.9-2.3
			c-1.1,1.2-1.6,2.5-1.7,4.1c-0.4,4-0.4,8,0,12c0.3,3.3,2.5,5.6,5.8,6.2c2.7,0.5,6-0.6,7.6-3.8c0.2-0.4,0.4-0.9,0.5-1.4
			c0.1-0.6,0.5-0.7,1-0.7c0.8,0.1,1.5-0.1,2.3,0.1c-0.4,4.1-3.6,7.7-8,8.5c-2,0.4-4,0.3-5.9-0.4c-4-1.5-6.4-4.4-6.6-8.7
			c-0.2-3.9-0.3-7.8,0-11.7c0.4-5.4,4.4-9.1,9.7-9.3c1.1,0,2.1,0,3.2,0.2c3.9,0.9,6.3,3.4,7.4,7.2
			C2211.6,169.6,2211.8,170,2211.6,170.5z"/>
		<path class="st3" d="M2060.7,178.5c0,3.8,0,7.7,0,11.5c0,0.4,0,0.9,0,1.3c0,0.4-0.2,0.6-0.6,0.6c-0.6,0-1.2,0-1.8,0
			s-0.7-0.2-0.7-0.7c0-0.4,0-0.9,0-1.3c0-7.7,0-15.5,0-23.2c0-2,0.1-1.8-1.8-1.8c-1.7,0-3.4,0-5.2,0c-0.3,0-0.7,0-1,0
			c-0.4,0-0.6-0.2-0.7-0.6c0-0.3,0-0.6,0-0.8c0-1.4,0-1.5,1.5-1.5c5.8,0,11.7,0,17.5,0c0.3,0,0.7,0,1,0s0.5,0.2,0.5,0.5
			c0,0.2,0,0.3,0,0.5c0,2,0.1,1.8-1.8,1.8c-2,0-4,0-6,0c-0.8,0-0.9,0.1-0.9,0.9c0,3.1,0,6.2,0,9.3
			C2060.7,176.2,2060.7,177.4,2060.7,178.5z"/>
		<path class="st3" d="M1893,258.6c0-3.8,0-7.6,0-11.3c0-0.4,0-0.9,0-1.3c0-0.3-0.2-0.5-0.5-0.5c-0.4,0-0.9,0-1.3,0
			c-1.9,0-3.8,0-5.7,0c-0.8,0-0.9-0.1-0.9-0.8c0-2.2-0.2-2,1.9-2c5.5,0,10.9,0,16.4,0c0.4,0,0.9,0,1.3,0c0.3,0,0.5,0.2,0.5,0.5
			s0,0.6,0,0.8c0,1.5,0,1.5-1.5,1.5c-1.7,0-3.3,0-5,0c-0.4,0-0.8,0-1.2,0c-0.7,0-0.8,0.1-0.8,0.9c0,0.4,0,0.9,0,1.3
			c0,7.4,0,14.8,0,22.2c0,2.4,0.2,2.2-2.3,2.2c-0.8,0-0.9-0.1-0.9-0.9c0-0.4,0-0.8,0-1.2C1893,266.2,1893,262.4,1893,258.6z"/>
		<path class="st0" d="M2010.3,258.6c0,3.8,0,7.7,0,11.5c0,0.4,0,0.9,0,1.3c0,0.2-0.2,0.4-0.4,0.4c-0.4,0-0.9,0.1-1.3,0
			c-1.3,0-1.3,0-1.3-1.3c0-7.6,0-15.2,0-22.9c0-2.8,0.3-2.4-2.4-2.4c-1.8,0-3.6,0-5.3,0c-0.7,0-0.8-0.1-0.8-0.8c0-0.4,0-0.9,0-1.3
			c0-0.6,0.1-0.7,0.8-0.8c0.2,0,0.4,0,0.7,0c5.7,0,11.5,0,17.2,0c1.5,0,1.6,0,1.5,1.6c0,0.1,0,0.2,0,0.3c0,0.8-0.2,0.9-1,0.9
			c-1.9,0-3.8,0-5.7,0c-0.4,0-0.9,0-1.3,0c-0.3,0-0.5,0.2-0.5,0.5c0,0.4,0,0.9,0,1.3C2010.3,251.1,2010.3,254.8,2010.3,258.6z"/>
		<path class="st3" d="M1981.2,257.3c0-4.3,0-8.6,0-12.9c0-0.4,0-0.8,0-1.2c0-0.6,0.1-0.7,0.8-0.8c0.1,0,0.1,0,0.2,0
			c2.3,0,2.2-0.3,2.2,2.1c0,7.5,0,15,0,22.5c0,2.2-0.2,2,1.9,2c3.7,0,7.5,0,11.2,0c0.4,0,0.9,0,1.3,0c0.3,0,0.5,0.2,0.6,0.5
			c0.3,1.9,0.1,2.2-1.8,2.2c-5,0-9.9,0-14.9,0c-1.5,0-1.5,0-1.5-1.4C1981.2,266.1,1981.2,261.7,1981.2,257.3z"/>
		<path class="st3" d="M1885.3,176.9c0,4.3,0,8.7,0,13c0,0.4,0,0.9,0,1.3c0,0.4-0.2,0.6-0.6,0.7c-0.2,0-0.4,0-0.7,0
			c-2.2,0-2,0.2-2-1.9c0-8.7,0-17.3,0-26c0-2.2-0.1-2,2-2c1.3,0,1.3,0,1.3,1.3C1885.3,167.8,1885.3,172.4,1885.3,176.9z"/>
		<path class="st0" d="M2180.3,176.8c0-4.2,0-8.5,0-12.7c0-0.4,0-0.9,0-1.3c0-0.6,0.2-0.7,0.8-0.8c0.6,0,1.1,0,1.7,0
			c0.4,0,0.6,0.2,0.6,0.6c0,0.4,0,0.8,0,1.2c0,8.8,0,17.6,0,26.4c0,0.4,0,0.8,0,1.2s-0.3,0.6-0.7,0.6c-0.6,0-1.2,0-1.8,0
			c-0.4,0-0.6-0.2-0.6-0.6c0-0.4,0-0.9,0-1.3C2180.3,185.6,2180.3,181.2,2180.3,176.8z"/>
		<path class="st0" d="M1910.1,270.1c0,1.9,0.1,1.8-1.8,1.8c-2.2,0-2.1,0.2-2.1-2c0-1.9-0.1-1.8,1.8-1.8
			C1910.3,268.1,1910,267.8,1910.1,270.1z"/>
		<path class="st4" d="M2006.3,156.9c0,0.3,0,0.7,0,1c0,0.8-0.1,0.9-1,0.9c-2.2,0-2,0.2-2-2c0-0.3,0-0.7,0-1c0-0.5,0.2-0.7,0.7-0.8
			c0.1,0,0.2,0,0.3,0C2006.5,155,2006.3,154.8,2006.3,156.9z"/>
		<path class="st5" d="M2012.2,157c0-2.1-0.3-2,2.1-2c0.7,0,0.9,0.2,0.9,0.9c0,0.8,0,1.5,0,2.3c0,0.4-0.2,0.6-0.6,0.6
			c-0.2,0-0.3,0-0.5,0C2012.1,158.9,2012.2,159.1,2012.2,157z"/>
		<path class="st6" d="M1969.4,237.6c0,2,0.1,1.8-1.8,1.8c-0.2,0-0.4,0-0.7,0c-0.3,0-0.5-0.2-0.5-0.5c0-0.6,0-1.1,0-1.7
			c0-1.5,0-1.5,1.5-1.5C1969.6,235.7,1969.4,235.6,1969.4,237.6z"/>
		<path class="st6" d="M1957.7,237.5c0-2-0.1-1.8,1.8-1.8c0.2,0,0.3,0,0.5,0c0.4,0,0.6,0.2,0.7,0.6c0,0.8,0,1.7,0,2.5
			c0,0.4-0.2,0.6-0.6,0.6c-0.1,0-0.2,0-0.3,0C1957.6,239.4,1957.7,239.6,1957.7,237.5z"/>
		<path class="st7" d="M2130.9,170.3c0-1.6,0-3.1,0-4.7c0-0.6,0.2-0.7,0.7-0.7c2.7,0,5.3,0,8,0c0.8,0,1.6,0.3,2.4,0.6
			c2,1,2.7,2.7,2.7,4.8s-0.8,3.8-2.7,4.8c-1,0.5-2,0.7-3.1,0.7c-2.4,0-4.8,0-7.2,0c-0.7,0-0.9-0.1-0.9-0.9
			C2130.8,173.4,2130.9,171.9,2130.9,170.3L2130.9,170.3z"/>
		<path class="st7" d="M1922.3,177c0-3.3,0-6.7,0-10c0-0.4,0-0.9,0-1.3c0-0.6,0.2-0.7,0.7-0.7c0.1,0,0.2,0,0.3,0c2,0,4,0,6,0
			c1.2,0,2.3,0.3,3.4,0.8c1.7,0.8,2.8,2.1,3.3,3.9c0.2,0.8,0.4,1.6,0.4,2.5c0.1,3.2,0.2,6.4,0,9.7c0,0.7-0.2,1.3-0.3,2
			c-0.6,3.2-2.8,4.8-5.8,5.2c-2.5,0.3-5,0.1-7.5,0.1c-0.3,0-0.5-0.2-0.5-0.5c0-0.4,0-0.9,0-1.3
			C1922.3,183.8,1922.3,180.4,1922.3,177z"/>
		<path class="st7" d="M1975.6,170.3c0-1.5,0-3,0-4.5c0-0.7,0.1-0.8,0.7-0.9c2.7,0,5.3-0.1,8,0c2.5,0.1,4.4,1.5,5,3.7
			c0.4,1.4,0.3,2.9-0.3,4.2c-0.6,1.4-1.8,2.2-3.2,2.6c-0.7,0.2-1.4,0.3-2.1,0.3c-2.3,0-4.7,0-7,0c-0.1,0-0.2,0-0.3,0
			c-0.5,0-0.7-0.2-0.7-0.7c0-0.8,0-1.6,0-2.3C1975.6,171.9,1975.6,171.1,1975.6,170.3L1975.6,170.3z"/>
		<path class="st7" d="M2103.3,170.2c0-1.5,0-3,0-4.5c0-0.7,0.1-0.8,0.8-0.8c2.7,0,5.3,0,8,0c1.2,0,2.4,0.4,3.4,1.3
			c1.7,1.5,2.1,3.5,1.6,5.6c-0.4,2.1-1.8,3.3-3.8,3.8c-0.7,0.2-1.4,0.3-2.1,0.3c-2.2,0-4.3,0-6.5,0c-0.2,0-0.4,0-0.7,0
			c-0.5,0-0.7-0.2-0.7-0.8c0-1.1,0-2.2,0-3.3C2103.3,171.2,2103.3,170.7,2103.3,170.2L2103.3,170.2z"/>
		<path class="st7" d="M2002,176.8c0.1-1.9,0.1-3.8,0.3-5.7c0.3-3.4,2.3-5.7,5.6-6.4c3.9-0.9,7.8,1.7,8.4,5.7
			c0.1,0.9,0.2,1.8,0.3,2.7c0.1,3.2,0.2,6.4-0.2,9.7c-0.3,3-1.9,5.1-4.7,6.1c-2.8,1-5.8,0.1-7.7-2.1c-1.1-1.2-1.5-2.7-1.6-4.3
			C2002.1,180.6,2002,178.7,2002,176.8z"/>
		<path class="st7" d="M1970.7,257.2c-0.1,1.8-0.1,3.6-0.2,5.4c-0.1,1.9-0.7,3.6-2.2,4.9c-3.3,2.9-8.1,2.2-10.5-1
			c-1-1.3-1.3-2.9-1.3-4.6c-0.1-3.2-0.1-6.3,0-9.5c0-0.7,0.2-1.3,0.3-2c0.5-3.5,4.3-6.1,8.2-5.3c2.7,0.6,5.3,2.5,5.6,6.4
			C1970.6,253.5,1970.6,255.4,1970.7,257.2z"/>
		<path class="st7" d="M1931.4,251.1c0-1.7,0-3.3,0-5c0-0.6,0.1-0.8,0.8-0.8c2.6,0,5.1,0,7.7,0c1,0,2,0.4,2.8,0.9
			c3.4,1.9,3.1,7.8,0.3,9.6c-1.1,0.7-2.3,1.1-3.6,1.1c-2.4,0.1-4.8,0-7.2,0c-0.7,0-0.8-0.1-0.8-0.9
			C1931.4,254.5,1931.4,252.8,1931.4,251.1L1931.4,251.1z"/>
	</g>
</g>
<g>
	<g>
		<path class="st8" d="M193,171.9c-4-3.5-8.1-5.6-12.8-6.7c-10.5-2.4-20.5-0.5-29.9,4.5c-7.1,3.9-12.9,9.2-16.3,16.7
			c-3.7,8.2-3.4,16.2,2.4,23.5c3,3.8,7,6.2,11.6,7.8c16.3,5.6,37.9-2,47.1-16.7c3-4.7,4.4-9.8,4.4-15.4c0-40.5,0-81,0-121.6
			c0-1.1,0-2.2,0-3.5c0.8-0.1,1.4-0.2,2-0.2c9.3,0,18.6-0.3,27.8,0.1c12.8,0.5,23.7,5.5,32.5,14.8c8,8.4,12.4,18.5,13.1,30.1
			c0.1,2,0.2,4,0.2,6c0,36.8,0,73.5,0,110.3c0,11.7-3.5,22.2-10.9,31.3c-8,9.7-18.3,15.5-30.8,17.2c-2.2,0.3-4.5,0.4-6.7,0.4
			c-37.4,0-74.7-0.1-112.1,0.1c-21.2,0.1-38.9-13.1-45.7-31.6c-1.8-5.1-2.9-10.3-2.9-15.7c0-38.6,0-77.2,0-115.8
			C66,86.4,81.4,67,101.9,62c4.1-1,8.1-1.5,12.3-1.5c25.2,0,50.4,0,75.6,0c0.9,0,1.9,0,3,0C193,97.5,193,134.5,193,171.9z"/>
		<path class="st8" d="M341.1,88.7c0,25.6,0,51.2,0,76.9c-9.6,0-19,0-28.6,0c0-34.3,0-68.5,0-102.8c15.4,0,30.7,0,46.2,0
			c5.9,20.6,11.7,41.2,17.6,61.7c0.3,0,0.4,0.1,0.5,0.1s0.2-0.1,0.2-0.1c5.9-20.5,11.7-41,17.6-61.6c15.3,0,30.6,0,46.1,0
			c0,34.2,0,68.4,0,102.6c-1.9,0.5-25.6,0.6-28.5,0.1c0-25.5,0-51.1,0-76.7c-0.2,0-0.4-0.1-0.6-0.1c-2.1,6.3-3.7,12.8-5.5,19.1
			c-1.9,6.4-3.7,12.9-5.5,19.4c-1.8,6.4-3.6,12.8-5.4,19.1c-1.8,6.4-3.7,12.9-5.5,19.4c-8.7,0-17.3,0-26.1,0
			c-7.3-25.7-14.5-51.4-21.8-77.1C341.6,88.7,341.3,88.7,341.1,88.7z"/>
		<path class="st8" d="M774.8,62.8c11.6,0,23,0,34.7,0c0,3.2,0,6.4,0,9.6c0,3.2,0,6.4,0,9.6s0,6.4,0,9.6s0,6.3,0,9.5
			c0.1,0.1,0.3,0.2,0.4,0.2c0.6-0.6,1.2-1.1,1.8-1.7c11.1-11.7,22.1-23.3,33.1-35c1.2-1.3,2.5-1.9,4.3-1.9c13.7,0.1,27.3,0,41,0
			c0.8,0,1.6,0,2.9,0c-1.6,2.1-3.5,3.5-5.1,5c-1.7,1.7-3.5,3.3-5.2,4.9s-3.4,3.2-5.1,4.8c-1.7,1.6-3.5,3.3-5.2,4.9s-3.4,3.2-5.1,4.8
			c-1.7,1.6-3.4,3.2-5.1,4.8c-1.7,1.6-3.5,3.3-5.2,4.9s-3.4,3.1-5.2,4.8c14.4,21.3,28.7,42.5,43.2,63.9c-0.7,0.1-1.2,0.3-1.7,0.3
			c-13.2,0-26.4,0-39.6,0.1c-1.6,0-2.2-0.7-2.9-1.9c-7.1-12.7-14.3-25.3-21.5-37.9c-0.4-0.8-0.9-1.5-1.4-2.4c-0.6,0.4-1,0.7-1.4,1
			c-5.3,5-10.6,10-15.9,15c-0.9,0.9-1.2,1.7-1.2,2.9c0,6.8,0,13.6,0,20.4c0,0.9,0,1.7,0,2.7c-11.7,0-23.2,0-34.7,0
			C774.4,163.9,774.2,65.7,774.8,62.8z"/>
		<path class="st8" d="M1182.4,124.4c0,13.6,0,27.3,0,41.4c-11.9,0.1-23.4,0-35.1,0c0-34.5,0-68.7,0-103c11.6,0,23.1,0,34.9,0
			c0.3,2.9,0.1,5.9,0.1,8.8c0,3,0,6.1,0,9.1s0,5.9,0,8.9c0,2.9,0,5.9,0,8.8c1.9,0.6,35.6,0.7,38.8,0.2c0-5.9,0-11.9,0-17.8
			s0-11.8,0-17.8c11.8,0,23.4,0,34.9,0c0.5,1.8,0.7,97.7,0.2,102.5c-0.1,0.1-0.1,0.1-0.2,0.2c-0.1,0.1-0.1,0.1-0.2,0.1
			c-0.5,0.1-0.9,0.2-1.4,0.2c-10.8,0-21.6,0-32.4,0c-0.2,0-0.4-0.1-0.9-0.3c0-13.6,0-27.4,0-41
			C1219.2,124,1185.3,123.8,1182.4,124.4z"/>
		<path class="st8" d="M1280.3,62.8c11.8,0,23.4,0,35.2,0c0,1.1,0,2,0,3c0,19.8,0,39.6,0,59.5c0,1.5,0,3.1,0.3,4.5
			c1.3,6.9,5.4,11.2,12.1,13.1c4.9,1.3,9.8,1.3,14.7-0.1c7.2-2,11.6-7.6,12-15c0.1-1.1,0.1-2.2,0.1-3.4c0-19.5,0-39,0-58.5
			c0-0.9,0-1.9,0-2.8c1.8-0.5,30.9-0.7,35.1-0.3c0,0.7,0.1,1.5,0.1,2.3c0,19.6,0,39.2,0,58.7c0,4.8-0.5,9.6-2,14.2
			c-4.8,14.8-15,23.8-29.9,27.6c-5.6,1.4-11.3,2-17.1,2c-9.9,0.1-19.8-0.2-29.6-2.4c-10.2-2.3-18.1-8.1-24.1-16.6
			c-3.5-4.9-4.9-10.6-5.9-16.3c-0.6-3.4-0.9-6.8-0.9-10.2c-0.1-18.8,0-37.6,0-56.3C1280.3,64.8,1280.3,63.9,1280.3,62.8z"/>
		<path class="st8" d="M463.6,62.8c11.8,0,23.3,0,35,0c0,1,0,2,0,2.9c0,19.8,0,39.6,0,59.5c0,1.9,0.1,3.9,0.6,5.7
			c1.4,6.1,5.4,10.1,11.3,11.9c4.8,1.5,9.6,1.5,14.5,0.3c8.2-2.1,12.6-7.8,13-16.5c0-0.8,0-1.6,0-2.4c0-19.4,0-38.8,0-58.3
			c0-0.9,0-1.9,0-3c11.7,0,23.2,0,34.9,0c0.1,0.7,0.2,1.4,0.2,2.1c0,19.9,0,39.8,0,59.7c0,4.8-0.6,9.6-2.2,14.1
			c-4.9,14.5-15.2,23.3-29.9,26.9c-6.6,1.6-13.4,2.1-20.2,2c-8.8-0.1-17.6-0.5-26.2-2.5c-10.2-2.3-18.1-8.1-24.1-16.6
			c-3.2-4.5-4.7-9.8-5.7-15.1c-0.6-3.4-1-6.8-1-10.2c-0.1-19.2,0-38.4,0-57.5C463.6,64.9,463.6,63.9,463.6,62.8z"/>
		<path class="st8" d="M1519.8,165.5c0-34.1,0-68.3,0-102.6c31.4,0,62.7,0,94.2,0c0,7.2,0,14.4,0,21.8c-19.6,0-39.2,0-58.9,0
			c0,5.6,0,10.9,0,16.5c18.2,0,36.3,0,54.6,0c0,7.1,0,13.9,0,21c-18.2,0-36.2,0-54.2,0c-0.7,1.9-0.8,17.9-0.1,20.7
			c20,0,40.2,0,60.4,0c0,7.8,0,15.2,0,22.7C1613.9,166,1522.3,166,1519.8,165.5z"/>
		<path class="st8" d="M689.8,91.6c-10.7,0.6-21.6,1.1-32.5,1.7c-0.3-1.1-0.5-1.9-0.8-2.7c-1.7-5.3-5.1-8.7-10.6-9.9
			c-4.1-0.9-8.2-1-12.3,0.2c-2,0.6-3.6,1.7-4.9,3.3c-2.2,3-1.8,6.2,1.2,8.4c1.1,0.8,2.3,1.5,3.6,1.8c4,1.1,8,2,12.1,2.9
			c8.5,1.8,17,3.6,25.2,6.7c3.3,1.2,6.5,2.7,9.5,4.5c16.1,9.5,16.4,27.4,10,38.8c-4.6,8.1-11.6,13.3-20.2,16.5
			c-6.6,2.4-13.5,3.5-20.4,3.8c-8.6,0.4-17.3,0.2-25.8-1.4c-3.4-0.6-6.7-1.4-10-2.6c-12.5-4.5-19.5-13.9-22.5-26.6
			c-0.4-1.6-0.5-3.3-0.8-5.2c11.2-0.6,22.2-1.3,33.3-1.9c0.2,0.7,0.4,1.3,0.5,1.9c2,9.7,8,14.9,17.9,15.6c3.5,0.2,6.9-0.1,10.1-1.3
			c2.2-0.8,4.1-2.2,5.6-4c2.6-3.3,2.6-7.3,0.1-10.6c-1.6-2-3.6-3.5-6-4.2c-4.7-1.4-9.5-2.8-14.3-3.9c-8.1-1.8-16.2-3.7-23.8-7.2
			c-3.2-1.5-6.3-3.2-9.1-5.3c-12.6-9.3-13.3-26.5-2.7-37.7c5.1-5.3,11.4-8.4,18.5-10.1c9.2-2.3,18.6-2.7,28.1-2.2
			c6.5,0.3,12.9,1.1,19.1,3.1c3.3,1.1,6.4,2.4,9.3,4.4c7.8,5.2,11.6,12.8,13,21.7c0,0.2,0,0.5,0,0.7
			C690.1,91.1,690.1,91.1,689.8,91.6z"/>
		<path class="st8" d="M901.2,131.9c11.2-0.6,22.1-1.3,33.3-1.9c0.2,0.8,0.4,1.5,0.6,2.3c1.3,6.4,4.7,11.3,11,13.8
			c3.8,1.5,7.8,1.9,11.8,1.3c1.7-0.2,3.5-0.6,5.1-1.2c1.3-0.5,2.6-1.2,3.7-2.1c5.5-4.4,5.3-11.1-0.7-15c-1.8-1.2-4-2.1-6.1-2.7
			c-5.2-1.4-10.5-2.6-15.8-3.9c-7.4-1.7-14.7-3.8-21.5-7.2c-2.4-1.2-4.8-2.7-6.9-4.3c-12.6-9.3-13.4-26.5-2.8-37.7
			c5.1-5.4,11.6-8.5,18.7-10.2c9.2-2.2,18.5-2.6,27.9-2.2c6.5,0.3,12.9,1.1,19.1,3.1c3.3,1.1,6.4,2.4,9.3,4.4
			c7.8,5.2,11.6,12.8,13,21.7c0,0.3,0,0.6,0,0.9c-1.7,0.6-29.9,2.3-32.9,1.9c-0.2-0.8-0.5-1.6-0.7-2.4c-1.7-5.3-5.1-8.7-10.6-10
			c-4.1-0.9-8.2-1-12.3,0.2c-2.1,0.6-3.9,1.8-5.1,3.7c-1.9,2.8-1.5,5.8,1.2,7.9c1.1,0.9,2.4,1.6,3.8,2c4,1.1,8,2,12.1,2.9
			c8.5,1.8,17,3.6,25.2,6.7c3.3,1.3,6.6,2.8,9.7,4.7c15.5,9.3,16.3,26.7,10,38.3c-4.6,8.3-11.7,13.6-20.4,16.9
			c-6.5,2.4-13.3,3.4-20.2,3.8c-8.7,0.4-17.4,0.2-26.1-1.4c-3.4-0.6-6.7-1.4-10-2.6c-12.5-4.6-19.4-14-22.4-26.6
			C901.6,135.4,901.4,133.7,901.2,131.9z"/>
		<path class="st8" d="M1128.6,92.9c-10.5,2.1-20.7,4.2-30.9,6.2c-0.3-0.7-0.6-1.2-0.9-1.8c-3.2-8-9.4-11.9-17.7-12.6
			c-2.7-0.2-5.6,0-8.3,0.7c-8.7,2.1-13.9,7.9-15.8,16.5c-2,9-1.8,18.1,0.4,27.1c2.2,9.1,8.8,14.4,18.2,14.8c2.9,0.1,5.9-0.1,8.8-0.6
			c4.5-0.8,8.1-3.1,10.9-6.9c2.2-3,3.7-6.4,4.8-9.9c0.2-0.8,0.5-1.5,0.8-2.6c10.2,2.8,20.3,5.5,30.6,8.4c-0.3,1.1-0.5,2.1-0.8,2.9
			c-3.4,10.6-9.3,19.2-18.8,25.2c-6.4,4-13.4,5.9-20.8,6.8c-8.1,0.9-16.1,0.8-24.2,0c-5.3-0.6-10.6-1.5-15.6-3.5
			c-13.9-5.4-23.2-15.5-27.8-29.5c-4.4-13.4-4.2-27.1,0.1-40.6c4.7-14.7,15-24,29.4-28.9c9.8-3.3,20-4.1,30.3-3.6
			c5.5,0.3,11,0.9,16.3,2.4c13,3.4,22.3,11.4,28.2,23.4C1126.8,88.6,1127.6,90.6,1128.6,92.9z"/>
		<path class="st8" d="M1413.3,165.7c0-34.4,0-68.5,0-102.9c11.7,0,23.2,0,35,0c0,25.8,0,51.6,0,77.6c1.2,0.1,2.2,0.2,3.2,0.2
			c16.2,0,32.5,0,48.7,0c1,0,2,0.1,3.1,0.1c0,8.4,0,16.6,0,24.9C1473.4,165.7,1443.5,165.7,1413.3,165.7z"/>
		<path class="st8" d="M713.7,165.5c0-34.2,0-68.3,0-102.4c1.7-0.5,31.3-0.7,34.8-0.2c0,34.1,0,68.3,0,102.5
			C746.9,165.9,717.1,166.1,713.7,165.5z"/>
		<path class="st9" d="M1242.2,250.4c0.2,0.6,0.5,1.3,0.6,2c1.5,5.4,5.1,8.5,10.7,9.2c2.9,0.3,5.8,0.1,8.5-0.9
			c3.2-1.2,5.4-3.4,5.7-7c0.2-2.4-0.8-4.3-2.8-5.4c-1.5-0.8-3.2-1.5-4.9-2c-4.1-1.2-8.2-2.1-12.2-3.4c-2.4-0.8-4.9-1.7-7-3
			c-5.6-3.3-8.5-8.3-8.1-14.9c0.4-6.1,3.6-10.5,8.9-13.3c3-1.6,6.3-2.3,9.7-2.6c4.8-0.4,9.6-0.2,14.2,1.3
			c6.6,2.1,10.9,6.5,12.3,13.4c0.2,1,0.2,2,0.4,3.4c-4,0.5-7.9,0.2-11.9,0.6c-0.3-1-0.6-1.7-0.9-2.6c-1.1-3.4-3.4-5.3-6.9-5.9
			c-3.3-0.6-6.5-0.5-9.7,0.6c-2.3,0.8-4.4,2-4.5,4.9s1.7,4.4,4.1,5.2c3,1.1,6.1,1.9,9.1,2.8c3.7,1.1,7.4,2,11,3.4
			c8,3.1,11.7,9,11.4,17.7c-0.2,7.3-5.2,13.8-12.6,16.1c-7.3,2.3-14.7,2.3-22,0.3c-8.6-2.4-14.1-9.6-14.7-18.9
			C1232.6,250.8,1239.6,250.1,1242.2,250.4z"/>
		<path class="st9" d="M1367.2,210c0.9,0,1.7,0,2.5,0c6.8,0,13.6,0,20.4,0c3,0,5.9,0.2,8.9,0.5c6.9,0.8,12.3,5.7,13.9,12.4
			c0.9,3.8,0.9,7.6,0,11.4c-1.7,7-7.7,12.2-15,12.8c-5.1,0.4-10.2,0.4-15.3,0.6c-1,0-2.1,0-3.4,0c-0.3,3.9-0.1,7.6-0.1,11.3
			c0,3.7,0,7.5,0,11.2c-1.8,0.5-9.1,0.6-11.7,0.2C1366.7,268.6,1366.6,212.9,1367.2,210z M1379.2,220.5c-0.5,3.1-0.4,15.3,0.2,17.2
			c5.1,0,10.3,0.4,15.4-0.8c3.7-0.9,5.8-3.8,6.1-7.4c0.3-5-2.9-8.6-7.6-8.9C1388.5,220.2,1383.9,220.5,1379.2,220.5z"/>
		<path class="st9" d="M344.2,231.7c0.4-2.6,0.2-4.9,0.2-7.2c0-2.4,0-4.8,0-7.2c0-2.3,0-4.6,0-6.8c1.9-0.6,8.4-0.7,11.1-0.2
			c0.5,1.7,0.6,57.7,0.1,60.3c-3.3,0-6.6,0-10.3,0c-0.1-1.8-0.1-3.7-0.2-5.9c-0.9,0.9-1.4,1.4-1.9,1.9c-6.6,6.8-16.8,6.9-23.7,0.4
			c-2.9-2.8-4.8-6.1-5.7-10.1c-1.4-6-1.4-12.1,0.3-18c2.4-8.2,9.3-13.2,17.7-13c3.9,0.1,7.3,1.5,10.3,4
			C342.7,230.4,343.3,230.9,344.2,231.7z M344.7,248.7c-0.1,0-0.2,0-0.3-0.1c-0.2-1.7-0.2-3.3-0.5-5c-0.1-1-0.5-2-0.8-3
			c-1.6-4-4.8-6.1-9.1-6c-3.8,0.1-7.1,2.6-8.4,6.7c-1.6,5-1.4,10.1,0.2,15.1c1.4,4.1,5.2,6.5,9.2,6.2s6.7-2.6,8-6.3
			C344,254,344.2,251.3,344.7,248.7z"/>
		<path class="st9" d="M653.5,231.8c0.2-7.5,0-14.5,0.1-21.6c3.9,0,7.5,0,11.3,0c0,20.1,0,40.1,0,60.4c-1.7,0-3.4,0.1-5.2,0.1
			c-1.7,0-3.3,0-5.3,0c0-1.9,0-3.7,0-6c-0.8,0.6-1.2,0.9-1.6,1.2c-7.4,8.5-21.3,8.1-28-3.7c-1.3-2.4-2.2-5-2.5-7.7
			c-0.7-5.2-0.7-10.4,0.8-15.4c2.4-8.3,9.4-13.4,17.8-13.2c3.9,0.1,7.3,1.5,10.3,4.1C651.8,230.4,652.4,230.9,653.5,231.8z
			 M653.9,248.7c-0.5-2.7-0.8-5.5-1.6-8c-1.4-4.1-4.8-6.1-9.1-6c-3.8,0.1-7.1,2.6-8.4,6.7c-1.6,5-1.4,10.1,0.2,15.1
			c1.4,4.1,5.2,6.5,9.2,6.2s6.7-2.6,8-6.3C653.1,254,653.3,251.3,653.9,248.7z"/>
		<path class="st9" d="M924.1,287.4c0-20.2,0-40.2,0-60.4c3.5,0,6.9,0,10.5,0c0.1,1.8,0.2,3.6,0.3,5.7c0.5-0.4,0.8-0.6,1-0.8
			c6.8-8.3,20.9-8.4,27.7,2.7c1.9,3.1,2.9,6.6,3.2,10.2c0.4,4.2,0.3,8.5-0.8,12.6s-3.2,7.6-6.4,10.4c-5.7,5-15.4,5.8-21.7-0.1
			c-0.6-0.6-1.3-1.1-2.1-1.9c-0.6,2-0.3,3.8-0.3,5.6c-0.1,1.8,0,3.5,0,5.3s0,3.7,0,5.5c0,1.7,0,3.5,0,5.3
			C931.6,287.4,928,287.4,924.1,287.4z M955.6,249.1c-0.2-3-0.5-6-1.8-8.7c-1.6-3.3-4.3-5.3-8.1-5.4c-3.7-0.1-6.8,1.5-8.4,4.8
			c-3,6-2.5,12.2,0.3,18.2c0.1,0.3,0.4,0.5,0.5,0.8c2.3,2.9,5.3,4.4,9,3.8c3.6-0.6,6.1-2.8,7.1-6.3
			C954.9,253.9,955.2,251.5,955.6,249.1z"/>
		<path class="st9" d="M1157.7,231.8c0-7.5,0-14.4,0-21.4c1.9-0.7,3.8-0.3,5.6-0.4c1.8-0.1,3.7,0,5.4,0c0.6,1.8,0.8,57.1,0.2,60.6
			c-1.6,0-3.2,0-4.9,0c-1.7,0-3.3,0-5.3,0c0-2,0-3.8,0-6.1c-0.8,0.6-1.3,0.9-1.6,1.2c-7.4,8.5-21.2,8.1-27.9-3.4
			c-1.9-3.2-2.7-6.8-3-10.5c-0.4-4.6-0.1-9.1,1.3-13.5c3.4-10.6,13.9-14.6,22.2-11.7c2.1,0.7,3.9,2.1,5.8,3.3
			C1156.2,230.4,1156.7,230.9,1157.7,231.8z M1157.9,248.8c-0.2-1.9-0.3-3.8-0.7-5.7c-0.7-3.5-2.3-6.4-5.7-7.7
			c-5.2-2.1-10.7,0.4-12.5,6.2c-1.6,4.9-1.3,9.9,0.3,14.8c0.9,2.9,2.9,4.9,5.9,5.9c4.6,1.5,9.2-0.7,11.3-5.5
			C1157.5,254.2,1157.8,251.5,1157.9,248.8z"/>
		<path class="st9" d="M783.7,210c0,7.4,0,14.5,0,22.2c1-0.9,1.7-1.4,2.3-2c5-4.3,10.7-5.4,17-3.5c5.5,1.7,8.4,5.6,9,11.2
			c0.3,2.6,0.4,5.3,0.4,7.9c0,7.4,0,14.7,0,22.1c0,0.9,0,1.7,0,2.7c-4,0-7.6,0-11.5,0c0-0.9-0.1-1.8-0.1-2.6c0-7.6,0-15.2-0.1-22.8
			c0-1.8-0.1-3.7-0.4-5.5c-0.4-2.8-2.3-4.4-4.9-4.9c-5.2-0.8-9.8,1.3-11.1,7.3c-0.4,1.7-0.5,3.5-0.5,5.2c-0.1,6.8-0.1,13.6-0.1,20.4
			c0,0.9,0,1.7,0,2.8c-3.8,0-7.4,0-11.1,0c-0.6-2-0.6-58.1,0-60.4c0.6,0,1.2-0.1,1.8-0.1C777.4,210,780.3,210,783.7,210z"/>
		<path class="st9" d="M562.7,270.6c-3.8,0-7.4,0-11,0c-0.5-1.4-1-2.8-1.7-4.5c-0.9,0.7-1.6,1.2-2.2,1.7c-5,3.8-10.6,4.8-16.6,3.3
			c-7.8-2-11.3-9.4-8.7-16.9c1.1-3.4,3.6-5.7,7-6.8c3.6-1.1,7.2-1.9,10.9-2.8c2.5-0.6,4.9-1.3,7.4-1.8c1.1-0.3,1.5-0.9,1.5-2.1
			c0-3.4-1.5-5.3-4.9-5.8c-1.7-0.2-3.5-0.2-5.3-0.1c-2,0.2-3.6,1.2-4.6,3c-0.4,0.7-0.8,1.4-1.3,2.3c-3.3-0.6-6.7-1.2-10.3-1.9
			c1.5-5.3,4.3-9.2,9.4-10.9c4.3-1.5,8.8-1.6,13.3-1.3c1.7,0.1,3.3,0.4,5,0.7c6.5,1.5,9.6,5,9.9,11.7c0.2,4.5,0,9.1,0.1,13.7
			c0.1,4.1,0.1,8.1,0.5,12.2C561.2,266.4,562.1,268.4,562.7,270.6z M549.3,249.7c-3.5,0.8-6.6,1.5-9.6,2.2c-1.2,0.3-2.5,0.6-3.6,1.2
			c-2.9,1.4-3.7,4.5-2.2,7.3c0.8,1.4,2,2.4,3.6,2.9c3.8,1.3,10.5-1.2,11.3-6.4C549.2,254.7,549.2,252.4,549.3,249.7z"/>
		<path class="st9" d="M832.9,240.1c-3.4-0.6-6.8-1.2-10.3-1.9c1.6-5.3,4.3-9.2,9.5-10.9c4.3-1.5,8.8-1.6,13.3-1.3
			c1.8,0.1,3.7,0.3,5.4,0.8c5.7,1.6,9.1,4.8,9.3,10.7c0.1,4.7,0.1,9.4,0.2,14.1c0.1,3.8,0,7.7,0.3,11.5c0.1,1.7,0.8,3.4,1.2,5.1
			c0.2,0.8,0.5,1.5,0.8,2.4c-3.7,0-7.3,0-11.2,0c-0.5-1.3-1-2.8-1.7-4.4c-0.8,0.6-1.5,1.2-2.2,1.7c-5,3.8-10.6,4.8-16.6,3.3
			c-7.8-1.9-11.8-10.2-8.6-17.5c1.3-3,3.6-5.2,6.7-6.2c3.6-1.2,7.4-1.9,11.1-2.9c2.5-0.6,4.9-1.3,7.4-1.9c1.2-0.3,1.5-1,1.4-2.1
			c-0.2-3.6-1.8-5.4-5.5-5.8c-1-0.1-1.9-0.1-2.9-0.1c-3.3-0.1-5.7,1.2-7.1,4.3C833.4,239.2,833.3,239.5,832.9,240.1z M849.2,249.6
			c-4.6,1.2-8.6,2.1-12.5,3.3c-2.1,0.6-3.5,2.1-3.7,4.5c-0.1,2.6,1.1,4.4,3.3,5.6c4.3,2.3,11.1-0.7,12.2-5.5
			C849,255.1,849,252.6,849.2,249.6z"/>
		<path class="st9" d="M1119.2,270.6c-3.6,0-7.2,0-11,0c-0.5-1.4-1-2.8-1.6-4.5c-0.8,0.6-1.4,1-2,1.5c-4.9,3.8-10.5,4.9-16.5,3.6
			c-5.6-1.2-9.5-5.7-10-11.2c-0.5-5.9,2.4-10.7,8-12.7c3.5-1.2,7.2-1.9,10.9-2.8c2.4-0.6,4.8-1.2,7.2-1.8c1.3-0.3,1.6-1,1.5-2.3
			c-0.3-3.6-1.8-5.2-5.3-5.6c-0.9-0.1-1.9-0.1-2.9-0.1c-3.4-0.1-5.9,1.2-7.3,4.4c-0.1,0.3-0.3,0.5-0.6,1c-3.3-0.6-6.6-1.2-10.3-1.8
			c1.6-5.2,4.3-9.1,9.4-10.9c4.4-1.5,8.9-1.7,13.5-1.3c2.1,0.2,4.3,0.5,6.3,1.1c5,1.5,8.1,4.8,8.2,10.2c0.1,4.8,0.1,9.6,0.2,14.4
			c0.1,3.8,0,7.7,0.3,11.5C1117.6,265.7,1118.5,268,1119.2,270.6z M1105.7,249.7c-4.2,1.1-8.2,2-12.1,3.1c-2.2,0.6-3.7,2.2-3.7,4.7
			c-0.1,2.5,1.3,4.6,3.7,5.6c4.2,1.8,10.5-0.9,11.7-5.3C1105.9,255.3,1106,252.6,1105.7,249.7z"/>
		<path class="st9" d="M1421,249.1c-0.1-4.1,0.8-7.9,2.6-11.6c3.2-6.3,8.5-9.8,15.3-11.2c3.6-0.7,7.2-0.6,10.7,0.2
			c9.8,2.2,16.7,10.7,17,20.9c0.2,4.6-0.5,9.1-2.9,13.2c-5.1,8.7-13.7,12.3-23.7,10.9c-2-0.3-3.9-0.9-5.8-1.6
			c-7.8-3-11.8-8.9-12.9-17C1421.2,251.6,1421.1,250.3,1421,249.1z M1432.9,248.8c0,2.6,0.2,5.4,1.6,7.9c2.1,3.7,5.1,5.8,9.5,5.7
			c4.4-0.1,7.5-2.2,9.2-6.1c2.2-4.9,2.2-10,0-14.9c-1.7-3.9-4.9-6.1-9.2-6.2c-4.5-0.1-7.6,2.1-9.7,5.9
			C1433.2,243.4,1433,246,1432.9,248.8z"/>
		<path class="st9" d="M1566.1,252.1c-9.8,0-19.4,0-28.9,0c-0.9,4.3,1.8,9.1,5.9,10.5c2.3,0.9,4.7,0.9,7-0.2s3.1-3.3,4.2-5.4
			c3.7,0.6,7.4,1.3,11.3,1.9c-2.2,5.9-5.9,10-11.7,11.7c-5.3,1.6-10.7,1.5-16-0.2c-5.5-1.8-9.2-5.7-11.2-11.1
			c-2.5-6.9-2.5-14,0.1-20.9c2.9-7.9,10.5-13.5,21-12.5c1.4,0.1,2.9,0.4,4.2,0.8c5.2,1.5,9.1,4.6,11.4,9.5
			C1565.8,241.1,1566.3,246.3,1566.1,252.1z M1537.1,244.7c1.8,0.6,15.4,0.6,17.4,0.1c0.4-5.4-3.2-9.9-8.2-10
			C1540.7,234.5,1537.1,238.5,1537.1,244.7z"/>
		<path class="st9" d="M714.9,252.1c-10.1,0-19.7,0-29.2,0c-1,4.2,1.8,9,5.8,10.6c4.8,1.8,8,0.3,11.3-5.6c3.6,0.6,7.3,1.3,11.2,1.9
			c-2.1,5.9-5.7,9.9-11.4,11.7c-5.4,1.7-10.9,1.6-16.3-0.2c-7-2.3-10.7-7.6-12.2-14.5c-1.1-5.1-1-10.3,0.4-15.4
			c2.8-10,11.9-15.8,22.2-14.5c7.6,0.9,15.2,5.3,17.3,16.6C714.5,245.6,714.6,248.6,714.9,252.1z M685.6,244.7
			c1.8,0.6,15.4,0.6,17.4,0.1c0.4-5.4-3.2-9.9-8.2-10C689.2,234.5,685.6,238.5,685.6,244.7z"/>
		<path class="st9" d="M405.4,252c-9.7,0-19.2,0-28.7,0c-1.1,4.1,1.7,9,5.8,10.6c4.8,1.9,8.2,0.2,11.3-5.6c1.3,0.2,2.6,0.4,3.9,0.6
			c2.3,0.4,4.7,0.8,7.3,1.3c-1.9,5.4-5.1,9.3-10.3,11.2c-6.4,2.4-12.9,2.3-19.2-0.4c-6-2.6-9.1-7.6-10.5-13.8c-1.1-5-1-10,0.3-15
			c2.7-10.4,11.8-16.5,22.5-14.9c9.6,1.4,15.5,7.1,17.1,16.7c0.4,2.5,0.5,5.1,0.7,7.6C405.6,250.9,405.5,251.3,405.4,252z
			 M376.5,244.9c5.9,0,11.7,0,17.4,0c0.4-5.6-3.2-10.1-8.1-10.2C380.1,234.5,376.5,238.4,376.5,244.9z"/>
		<path class="st9" d="M612.5,270.6c-3.9,0-7.5,0-11.3,0c0-0.9-0.1-1.8-0.1-2.6c0-7.3,0-14.5-0.1-21.8c0-1.7,0-3.4-0.3-5
			c-0.7-5.5-4.8-7.4-9.6-6.2c-3.7,0.9-6.2,3.4-6.8,7.2c-0.3,2.1-0.5,4.3-0.5,6.4c-0.1,6.5,0,12.9-0.1,19.4c0,0.8-0.1,1.6-0.1,2.5
			c-3.8,0-7.4,0-11.1,0c-0.5-1.6-0.6-40.5-0.1-43.6c3.4,0,6.7,0,10.4,0c0,1.9,0,3.7,0,5.6c1.3-0.2,1.8-1.1,2.4-1.7
			c5.7-5.2,12.2-6.2,19.4-3.6c4.4,1.6,6.7,5,7.5,9.5c0.3,1.7,0.4,3.5,0.4,5.2c0,8.9,0,17.7,0,26.6
			C612.7,269.2,612.6,269.8,612.5,270.6z"/>
		<path class="st9" d="M1040.6,237.4c-3.6,0.7-7.1,1.3-10.5,1.9c-0.4-0.7-0.6-1.3-1-1.8c-0.9-1-1.8-2.2-3-2.6
			c-3.5-1.3-7.1-1.2-10.5,0.1c-1.2,0.4-2,1.3-2.1,2.7c-0.1,1.5,0.9,2.4,2.2,2.8c2.9,0.9,5.8,1.7,8.7,2.5c2.4,0.7,4.8,1.2,7.2,1.9
			c1.3,0.4,2.6,0.9,3.8,1.5c7.2,3.4,9.3,11.6,4.7,18.1c-2.3,3.2-5.4,5.2-9.1,6.2c-5.8,1.5-11.7,1.5-17.5-0.1
			c-5.6-1.5-9.6-5-11.7-10.5c-0.1-0.3-0.2-0.6-0.3-0.9c0-0.1,0-0.3,0-0.7c3.6-0.9,7.3-1.2,11-1.8c0.2,0.3,0.4,0.6,0.5,0.9
			c1.3,3.8,4,5.7,7.9,5.9c2,0.1,4-0.2,5.9-0.5c0.9-0.1,1.8-0.7,2.6-1.2c2.3-1.8,1.9-5.1-0.9-6.1c-2.1-0.7-4.3-1.1-6.5-1.7
			c-2.9-0.8-5.9-1.6-8.8-2.4c-1-0.3-2-0.7-2.9-1.1c-4.3-1.9-7.1-5.1-7.5-10c-0.4-5.4,2-9.4,6.6-12.1c2.9-1.7,6.2-2.1,9.5-2.4
			c3.8-0.3,7.5,0,11.2,0.9c4.8,1.2,8.3,4,10.2,8.7C1040.3,236,1040.4,236.6,1040.6,237.4z"/>
		<path class="st9" d="M720.6,258.4c3.8-0.6,7.5-1.1,11.1-1.7c0.2,0.3,0.5,0.5,0.5,0.7c1.2,3.9,4,5.8,8,6.1c2.4,0.2,4.8,0,7.1-0.9
			c1.3-0.5,2.3-1.4,2.7-2.8c0.5-1.6-0.1-3.1-1.6-3.8c-1-0.5-2.1-0.8-3.2-1c-4.2-1.1-8.3-2.2-12.5-3.3c-1-0.3-2-0.7-2.9-1.1
			c-4.7-2-7.5-5.4-7.7-10.6c-0.2-5.3,2.3-9.2,6.9-11.7c2.9-1.6,6.1-2,9.2-2.2c3.8-0.3,7.5,0,11.2,0.9c5.5,1.3,9,4.8,10.8,10.6
			c-3.6,0.7-7.1,1.3-10.7,2c-0.3-0.6-0.6-1.1-0.9-1.5c-1-1.9-2.6-3.1-4.7-3.4c-2.7-0.4-5.4-0.5-8.1,0.3c-0.7,0.2-1.4,0.5-1.9,0.9
			c-1.6,1.3-1.6,3.3,0.1,4.4c0.8,0.5,1.7,0.9,2.6,1.1c3.7,1,7.4,1.8,11.1,2.9c2.4,0.7,4.8,1.4,7,2.5c7,3.2,9.1,11.1,4.9,17.5
			c-2.6,3.9-6.3,6.1-10.8,7c-5.3,1.1-10.7,1.1-15.9-0.3c-5.9-1.6-10.2-5.2-12.2-11.1C720.7,259.2,720.7,258.9,720.6,258.4z"/>
		<path class="st9" d="M1616,270.6c-3.9,0-7.4,0-11.3,0c0-0.8-0.1-1.7-0.1-2.5c0-7,0-14.1-0.1-21.1c0-1.8-0.2-3.5-0.3-5.3
			c-0.1-4.7-3.8-8.4-10-6.6c-4.1,1.2-6.2,4.1-6.5,8.3c-0.3,3.1-0.4,6.2-0.4,9.3c-0.1,5,0,10.1,0,15.1c0,0.9,0,1.7,0,2.7
			c-3.9,0-7.5,0-11.3,0c0-14.5,0-28.9,0-43.7c3.3-0.1,6.6,0,10.2-0.1c0.1,1.9,0.2,3.8,0.4,5.8c1.1-0.2,1.5-1.1,2.1-1.6
			c5.3-5,11.6-6.2,18.4-4.1c5.7,1.7,8.3,5.9,8.8,11.6c0.1,1.3,0.1,2.6,0.1,3.8c0,8.6,0,17.1,0,25.7
			C1616,268.7,1616,269.5,1616,270.6z"/>
		<path class="st9" d="M900.5,226.9c4,0,7.5,0,11.3,0c0,14.6,0,29.1,0,43.7c-3.4,0-6.7,0-10.3,0c-0.1-1.9-0.2-3.8-0.3-6.1
			c-0.9,0.9-1.5,1.5-2,2c-5,4.8-11,6.3-17.7,4.6c-4.9-1.3-8-4.5-9.1-9.5c-0.3-1.6-0.6-3.3-0.6-5c-0.1-9.3,0-18.7,0-28
			c0-0.5,0.1-0.9,0.1-1.7c1.9,0,3.7,0,5.5,0s3.6,0,5.7,0c0.1,1.1,0.1,2.1,0.1,3c0.1,8.1,0.2,16.3,0.3,24.4c0,1.4,0.2,2.9,0.6,4.3
			c0.7,2.3,2.3,3.8,4.7,4.3c5.3,1.1,11.1-2.3,11.3-8.4c0.2-8.1,0.3-16.1,0.4-24.2C900.5,229.2,900.5,228.1,900.5,226.9z"/>
		<path class="st9" d="M472.9,270.5c0-19.9,0-39.7,0-59.8c3.9-0.2,7.7-0.2,11.9,0c0,16.7,0,33.2,0,49.9c10.4,0,20.4,0,30.7,0
			c0,1.8,0.1,3.4,0.1,5s0,3.2,0,4.9C501.5,270.5,487.3,270.5,472.9,270.5z"/>
		<path class="st9" d="M1053.2,236c-1.9-0.1-3.5-0.2-5.2-0.3c0-3,0-5.8,0-8.9c1.7,0,3.2,0,5.1,0c0-1.3,0.1-2.4,0.1-3.4
			c0.1-1.7-0.5-3.8,0.3-5.1c0.8-1.4,2.9-2.1,4.5-3c1.6-1,3.3-1.9,5-2.9c0.5-0.3,1-0.5,1.8-0.9c0,5.2,0,10.1,0,15.2
			c2.7,0,5.1,0,7.8,0c0.4,3.1,0.2,5.9,0.2,9c-2.7,0.1-5.2,0.2-7.8,0.3c-0.1,0.8-0.1,1.5-0.1,2.1c0,6.5,0,13.1,0,19.6
			c0,0.5,0,1,0.1,1.4c0.2,2,1.3,3.1,3.3,3c1.4-0.1,2.8-0.5,4.5-0.8c0.4,2.8,0.8,5.5,0.9,8.4c-1.5,1-3.2,1.2-4.8,1.5
			c-2.8,0.5-5.6,0.5-8.3-0.2c-4.2-1.1-6.4-3.5-6.9-7.8c-0.2-2.1-0.4-4.1-0.4-6.2c-0.1-6.2,0-12.3,0-18.5
			C1053.2,237.9,1053.2,237.1,1053.2,236z"/>
		<path class="st9" d="M1520,261.3c0.3,3,0.7,5.8,1,8.8c-1.8,0.5-3.5,1-5.2,1.3c-3.3,0.5-6.5,0.5-9.7-0.7c-2.7-1.1-4.5-3-5.1-5.9
			c-0.4-2.1-0.6-4.3-0.6-6.4c-0.1-6.5,0-12.9,0-19.4c0-0.9,0-1.7,0-2.9c-1.8-0.1-3.4-0.3-5.2-0.4c0-2.9,0-5.8,0-8.8
			c1.7,0,3.2,0,4.9,0c0.5-2.2,0.4-4.2,0.2-6.1c-0.2-2.2,0.6-3.3,2.5-4.3c2.9-1.5,5.7-3.2,8.7-5c0.5,2.7,0.2,5.1,0.2,7.5
			c0.1,2.5,0,4.9,0,7.7c2.7,0,5.2,0,7.9,0c0.3,3.1,0.1,5.9,0.1,9.1c-2.7,0.1-5.3,0.2-7.7,0.3c-0.1,0.4-0.2,0.4-0.2,0.5
			c0,7.4-0.1,14.8,0,22.3c0,2.7,1.6,3.8,4.4,3.4C1517.5,262,1518.6,261.7,1520,261.3z"/>
		<path class="st9" d="M1310.7,261.4c0.3,3,0.7,5.7,1,8.6c-1.2,0.4-2.2,1-3.4,1.1c-2.5,0.3-5.1,0.6-7.6,0.5
			c-5.8-0.3-8.9-3.6-9.4-9.5c-0.1-1.7-0.1-3.5-0.1-5.3c0-6,0-12,0-18c0-0.9,0-1.7,0-2.8c-1.8-0.1-3.4-0.2-5.2-0.4
			c-0.3-2.9-0.1-5.7-0.1-8.8c1.7-0.1,3.4-0.2,5.3-0.3c0-2.2,0.1-4.4,0-6.5c-0.1-1.7,0.5-2.6,1.9-3.4c2.5-1.3,4.8-2.8,7.3-4.2
			c0.6-0.3,1.2-0.6,2.2-1.1c0,5.2,0,10.1,0,15.2c2.8,0,5.3,0,8,0c0,3.1,0,5.9,0,9c-2.6,0.1-5.1,0.2-7.8,0.3
			c-0.1,0.9-0.2,1.6-0.2,2.3c0,6.2,0,12.5,0,18.7c0,0.6,0,1.3,0.1,1.9c0.3,2.6,1.6,3.7,4.2,3.3
			C1308.2,262,1309.3,261.7,1310.7,261.4z"/>
		<path class="st9" d="M1201.1,235.7c-2.6,0.1-5.1,0.2-7.7,0.3c-0.1,0.8-0.2,1.4-0.2,2.1c0,6.3,0,12.6,0,18.9c0,0.6,0,1.3,0.1,1.9
			c0.3,2.6,1.7,3.6,4.3,3.3c1.2-0.2,2.3-0.5,3.6-0.8c0.3,2.9,0.7,5.7,1,8.4c-1.5,1.2-3.3,1.3-5,1.6c-2.9,0.5-5.7,0.5-8.6-0.3
			c-3.5-1-5.9-3.2-6.4-6.9c-0.3-2-0.4-4-0.5-6c-0.1-6.5,0-12.9,0-19.4c0-0.9,0-1.7,0-2.8c-1.8-0.1-3.4-0.2-4.9-0.3
			c-0.6-1.8-0.7-5.6-0.2-8.8c1.6-0.1,3.2-0.2,5.2-0.3c0-2.3,0.1-4.5,0-6.8c-0.1-1.5,0.5-2.3,1.8-3c2.6-1.4,5.1-3,7.7-4.4
			c0.5-0.3,1.1-0.5,2-1c0,5.2,0,10.1,0,15.2c2.8,0,5.3,0,7.9,0C1201.1,229.9,1201.1,232.7,1201.1,235.7z"/>
		<path class="st9" d="M996.6,235.9c-2.7,0-5.1,0-7.7,0c-0.1,1-0.2,1.6-0.2,2.3c0,6.2,0,12.5,0,18.7c0,0.7,0,1.4,0.1,2.2
			c0.3,2.3,1.6,3.4,3.9,3.1c1.3-0.1,2.5-0.5,3.9-0.8c0.3,2.8,0.7,5.6,1,8.6c-0.9,0.3-1.8,0.7-2.7,0.9c-2.8,0.8-5.7,1-8.6,0.7
			c-5.7-0.5-8.7-3.7-9.2-9.5c-0.1-1.5-0.1-3-0.1-4.6c0-6.2,0-12.5,0-18.7c0-0.9,0-1.7,0-2.8c-1.8-0.1-3.4-0.2-4.9-0.3
			c-0.6-1.8-0.7-6.3-0.1-8.9c1.5,0,3.1,0,5,0c0-2.4,0.1-4.5,0-6.6c-0.1-1.6,0.4-2.6,1.9-3.4c3.1-1.6,6.1-3.5,9.5-5.4
			c0,5.3,0,10.2,0,15.3c2.8,0,5.3,0,8,0C996.6,229.8,996.6,232.6,996.6,235.9z"/>
		<path class="st9" d="M1487.2,270.6c-3.5,0-7.1,0-10.7,0c-0.5-1.6-0.7-56.7-0.2-60.3c3.6,0,7.2,0,10.8,0
			C1487.6,212.2,1487.7,268.2,1487.2,270.6z"/>
		<path class="st9" d="M426.1,270.6c-3.8,0-7.4,0-10.9,0c-0.5-1.7-0.7-39.9-0.2-43.6c3.4,0,6.8,0,10.4,0c0.1,1.7,0.1,3.4,0.2,5.4
			c1.8-1.8,3.1-3.5,4.8-4.9c1.7-1.4,3.9-1.7,6.1-1.5s4.4,0.7,6.5,2.1c-0.9,3.3-2.2,6.4-3.4,9.8c-1-0.4-1.8-0.8-2.6-1
			c-4.3-1.6-7.9-0.1-9.4,4.3c-0.8,2.3-1.1,4.8-1.2,7.3c-0.3,6.5-0.2,12.9-0.4,19.4C426.2,268.6,426.2,269.5,426.1,270.6z"/>
		<path class="st9" d="M1330.2,270.6c-3.6,0-7.2,0-11,0c0-3.7,0-7.2,0-10.9c1.7-0.6,3.6-0.2,5.4-0.3c1.8-0.1,3.7,0,5.4,0
			C1330.7,261.2,1330.8,268,1330.2,270.6z"/>
		<path class="st9" d="M1440.1,220.7c-3.3,0-6.4,0-9.8,0c-0.2-3.1-0.2-6.1,0-9.3c3.2,0,6.3,0,9.7,0
			C1440.3,214.5,1440.3,217.5,1440.1,220.7z"/>
		<path class="st9" d="M1458.1,220.7c-0.8,0.1-1.4,0.2-1.9,0.2c-2.5,0-5.1,0-7.8,0c0-3.2,0-6.2,0-9.2c1.6-0.6,6.3-0.8,9.6-0.2
			c0,1.4,0.1,2.9,0.1,4.4C1458.1,217.4,1458.1,218.9,1458.1,220.7z"/>
	</g>
</g>
</svg>
