<svg id="Layer_8" data-name="Layer 8" xmlns="http://www.w3.org/2000/svg" viewBox="0 0 454.6 84.1"><defs><style>.cls-1{fill:#d11317;}.cls-2{fill:#fff;}.cls-3{fill:#1d1d1b;}</style></defs><polygon class="cls-1" points="454.6 79.34 374.6 79.34 386.24 0.34 454.6 0.34 454.6 79.34"/><path class="cls-2" d="M436.35,41.72c-2.1,3.5-3,4.9-3.73,4.66s1.86-3.73,1.86-7-2.79-5.6-5.13-6.53-6.52-2.8-6.52-2.8V43.12c0,2.33.93,12.59.93,14.92a16.88,16.88,0,0,1-.63,4.39l-.07-.24c-.79,3.7-4.54,7.2-9.68,8.6-6.59,1.79-13-.54-14.23-5.22s3-9.91,9.61-11.71c4.94-1.34,9.76-.36,12.4,2.18,0,0-1.13-12.92-1.13-14.79v-27a33.4,33.4,0,0,1,5.13,3.26c2.33,1.87,12.35,10.49,13,14A19.14,19.14,0,0,1,436.35,41.72Z" transform="translate(-1.47 -5.05)"/><path class="cls-1" d="M11.2,5.41,22.48,40.69,33.64,5.41h9.57V50.53H36.08v-37L25.26,48.85h-6.6L7.83,13.51v37H1.5V5.41Z" transform="translate(-1.47 -5.05)"/><path class="cls-1" d="M60.5,5.41v32c0,4.86,1.39,8.52,7.59,8.52s7.59-3.66,7.59-8.52v-32h6.53v31c0,3.6-.13,7.5-2.9,10.62-2.51,2.82-6.47,4.2-11.68,4.2-5.61,0-9.24-1.56-11.55-4.14-2.77-3.06-2.9-7-2.9-10.62v-31Z" transform="translate(-1.47 -5.05)"/><path class="cls-1" d="M112.24,11.47h-.39a28.43,28.43,0,0,0-7.46-1.26c-4.22,0-6.67,1.8-6.67,5.58,0,5.22,4.76,7.08,9,10.08,4.09,2.82,7.25,6.18,7.25,12.54,0,8.64-5.87,12.48-14.78,12.48a28.35,28.35,0,0,1-8.84-1.32V44.11h.39a28.2,28.2,0,0,0,8.39,1.62c4.62,0,7.32-2.22,7.32-6.36,0-5.7-5-7.74-9.63-11.1-3.63-2.58-6.67-5.58-6.67-11.52,0-7.68,5-11.7,13.73-11.7a33.56,33.56,0,0,1,8.31,1.08Z" transform="translate(-1.47 -5.05)"/><path class="cls-1" d="M129.94,5.41V50.53h-7.32V5.41Z" transform="translate(-1.47 -5.05)"/><path class="cls-1" d="M146.17,5.41V26.17L161,5.41h7.45l-15,20.22,16,24.9h-8.58L146.17,27V50.53h-7.26V5.41Z" transform="translate(-1.47 -5.05)"/><path class="cls-1" d="M195.27,11.47h-.4a28.31,28.31,0,0,0-7.45-1.26c-4.23,0-6.67,1.8-6.67,5.58,0,5.22,4.75,7.08,9,10.08,4.09,2.82,7.26,6.18,7.26,12.54,0,8.64-5.87,12.48-14.78,12.48a28.27,28.27,0,0,1-8.84-1.32V44.11h.39a28.18,28.18,0,0,0,8.38,1.62c4.62,0,7.33-2.22,7.33-6.36,0-5.7-5-7.74-9.64-11.1-3.63-2.58-6.66-5.58-6.66-11.52,0-7.68,5-11.7,13.72-11.7a33.59,33.59,0,0,1,8.32,1.08Z" transform="translate(-1.47 -5.05)"/><path class="cls-1" d="M228.27,49.93a29.26,29.26,0,0,1-7.52,1c-14.06,0-17.89-10-17.89-22.86s3.83-23,17.89-23a29.26,29.26,0,0,1,7.52,1v5.4h-.46a19.81,19.81,0,0,0-6.34-1.08c-8.38,0-10.95,6.3-10.95,17.46,0,11.34,2.64,17.82,11,17.82a19.65,19.65,0,0,0,6.27-1.08h.46Z" transform="translate(-1.47 -5.05)"/><path class="cls-1" d="M243.25,5.41v19h15.38v-19H266V50.53h-7.32V29.83H243.25v20.7h-7.32V5.41Z" transform="translate(-1.47 -5.05)"/><path class="cls-1" d="M283.25,5.41v32c0,4.86,1.38,8.52,7.59,8.52s7.59-3.66,7.59-8.52v-32H305v31c0,3.6-.13,7.5-2.9,10.62-2.51,2.82-6.47,4.2-11.69,4.2-5.61,0-9.24-1.56-11.54-4.14-2.78-3.06-2.91-7-2.91-10.62v-31Z" transform="translate(-1.47 -5.05)"/><path class="cls-1" d="M321.25,5.41V45H335v5.52H313.93V5.41Z" transform="translate(-1.47 -5.05)"/><path class="cls-1" d="M364.42,5.41v5.4H349.18V24.43h12.93v5.4H349.18v15.3h15.9v5.4H341.92V5.41Z" transform="translate(-1.47 -5.05)"/><path class="cls-3" d="M12,65V84.35H10.92l-.42-2.1c-.43,1.4-1.75,2.33-3.93,2.33a4.79,4.79,0,0,1-3.74-1.5c-.93-1-1.36-2.65-1.36-5.37s.4-4.3,1.33-5.38a5.07,5.07,0,0,1,4-1.6c1.91,0,3.2.73,3.75,2.15V65ZM4,73c-.73,1-1,2.37-1,4.7s.24,3.74,1,4.69a3.35,3.35,0,0,0,2.77,1.2,3.36,3.36,0,0,0,2.78-1.2c.73-.95,1-2.37,1-4.69s-.24-3.75-1-4.7a3.36,3.36,0,0,0-2.78-1.2A3.35,3.35,0,0,0,4,73Z" transform="translate(-1.47 -5.05)"/><path class="cls-3" d="M25.56,84a10.9,10.9,0,0,1-3.32.47c-2.33,0-3.69-.65-4.5-1.65a8.23,8.23,0,0,1-1.36-5.22c0-4.2,1.45-6.9,5.13-6.9a4.18,4.18,0,0,1,3.8,1.83c.85,1.35.85,3,.85,5.3H18c0,4,1.27,5.62,4.26,5.62a9.58,9.58,0,0,0,3.13-.55h.19Zm-1-7.17c0-2.93-.66-5.13-3.08-5.13-2.59,0-3.38,2.5-3.5,5.13Z" transform="translate(-1.47 -5.05)"/><path class="cls-3" d="M36.3,72.06A6.71,6.71,0,0,0,35.24,72c-3,0-3.2,2-3.2,3.28v9.09H30.53V71h1.09l.36,2c.49-1.67,2.09-2.07,3.93-2.07h.39Z" transform="translate(-1.47 -5.05)"/><path class="cls-3" d="M48.61,65.56V83.33h6.94v1H47.1V65.56Z" transform="translate(-1.47 -5.05)"/><path class="cls-3" d="M58.63,71.31a12,12,0,0,1,3.5-.5c1.63,0,3.23.32,4,1.37a5,5,0,0,1,.64,3.13v6.52c0,.7,0,1.55,1.3,1.55.3,0,.72,0,.72,0v1a4.55,4.55,0,0,1-1.15.13c-1.51,0-2.32-.55-2.38-2.05-.42,1.22-1.69,2.12-3.68,2.12-2.42,0-4-1.32-4-3.72s1.78-4.07,6.28-4.07c.81,0,1.42.05,1.42.05,0-2.23,0-3.2-.48-3.93a3.32,3.32,0,0,0-2.78-1,9.82,9.82,0,0,0-3.2.58h-.18Zm3.23,12.17A3.11,3.11,0,0,0,64.66,82a6.37,6.37,0,0,0,.61-3.24V77.71h-1c-2.65,0-5.1.45-5.1,3A2.5,2.5,0,0,0,61.86,83.48Z" transform="translate(-1.47 -5.05)"/><path class="cls-3" d="M73.33,71l.42,1.87c.3-1.4,1.63-2.1,3.68-2.1a4.31,4.31,0,0,1,3.68,1.45c.7.93.73,1.93.73,3.38v8.79H80.33V75.56a4.25,4.25,0,0,0-.55-2.65,3.08,3.08,0,0,0-2.68-1.08c-3.08,0-3.35,2.15-3.35,3.3v9.22H72.24V71Z" transform="translate(-1.47 -5.05)"/><path class="cls-3" d="M96.59,65V84.35H95.51l-.43-2.1c-.42,1.4-1.75,2.33-3.92,2.33a4.79,4.79,0,0,1-3.74-1.5c-.94-1-1.36-2.65-1.36-5.37s.39-4.3,1.33-5.38a5.06,5.06,0,0,1,4-1.6c1.9,0,3.2.73,3.74,2.15V65Zm-8,8c-.73,1-1,2.37-1,4.7s.24,3.74,1,4.69a3.81,3.81,0,0,0,5.55,0c.72-.95,1-2.37,1-4.69s-.25-3.75-1-4.7a3.81,3.81,0,0,0-5.55,0Z" transform="translate(-1.47 -5.05)"/><path class="cls-3" d="M110.14,84a10.82,10.82,0,0,1-3.32.47c-2.32,0-3.68-.65-4.49-1.65A8.23,8.23,0,0,1,101,77.63c0-4.2,1.45-6.9,5.13-6.9a4.18,4.18,0,0,1,3.8,1.83c.85,1.35.85,3,.85,5.3h-8.18c0,4,1.27,5.62,4.25,5.62a9.68,9.68,0,0,0,3.14-.55h.18Zm-1-7.17c0-2.93-.67-5.13-3.08-5.13-2.6,0-3.38,2.5-3.5,5.13Z" transform="translate(-1.47 -5.05)"/><path class="cls-3" d="M121.46,72.28h-.18a8.87,8.87,0,0,0-2.6-.45c-1.66,0-2.71.68-2.71,2.13,0,1.6,1.29,2,3.17,3.1s2.8,2.15,2.8,3.82c0,2.52-2,3.62-4.58,3.62a7.72,7.72,0,0,1-2.93-.52v-1.1h.18a8.2,8.2,0,0,0,3,.6c1.87,0,2.86-.83,2.86-2.38,0-1.84-1.41-2.52-3.07-3.39s-2.9-1.75-2.9-3.58c0-2,1.57-3.32,4.31-3.32a10.24,10.24,0,0,1,2.69.37Z" transform="translate(-1.47 -5.05)"/><path class="cls-3" d="M127.65,65v7.87c.3-1.35,1.5-2.1,3.65-2.1A4.34,4.34,0,0,1,135,72.18a5.29,5.29,0,0,1,.72,3.38v8.79h-1.51V75.56a4.31,4.31,0,0,0-.54-2.65A3.09,3.09,0,0,0,131,71.83c-3.08,0-3.35,2.18-3.35,3.3v9.22h-1.51V65Z" transform="translate(-1.47 -5.05)"/><path class="cls-3" d="M140.68,71.31a12,12,0,0,1,3.5-.5c1.63,0,3.23.32,4,1.37a5.09,5.09,0,0,1,.63,3.13v6.52c0,.7,0,1.55,1.3,1.55.3,0,.72,0,.72,0v1a4.51,4.51,0,0,1-1.14.13c-1.51,0-2.33-.55-2.39-2.05-.42,1.22-1.69,2.12-3.68,2.12-2.41,0-4-1.32-4-3.72s1.78-4.07,6.27-4.07c.82,0,1.42.05,1.42.05,0-2.23,0-3.2-.48-3.93a3.31,3.31,0,0,0-2.78-1,9.82,9.82,0,0,0-3.2.58h-.18Zm3.23,12.17A3.13,3.13,0,0,0,146.72,82a6.46,6.46,0,0,0,.6-3.24V77.71h-1c-2.66,0-5.1.45-5.1,3A2.49,2.49,0,0,0,143.91,83.48Z" transform="translate(-1.47 -5.05)"/><path class="cls-3" d="M162.38,84.35,162,82.48c-.3,1.4-1.63,2.1-3.56,2.1a4.29,4.29,0,0,1-3.53-1.4c-.7-.88-.76-2-.76-3.43V71h1.51v8.79a3.9,3.9,0,0,0,.58,2.7,3,3,0,0,0,2.56,1c2.93,0,3.2-2.18,3.2-3.3V71h1.51V84.35Z" transform="translate(-1.47 -5.05)"/><path class="cls-3" d="M168.54,89.15V71h1.08l.43,2.1c.42-1.4,1.75-2.33,3.92-2.33a4.78,4.78,0,0,1,3.74,1.5c.94,1,1.36,2.65,1.36,5.38s-.39,4.29-1.33,5.37a5.06,5.06,0,0,1-4,1.6c-1.9,0-3.2-.73-3.74-2.15v6.72Zm8-6.8c.73-.95,1-2.37,1-4.69s-.24-3.75-1-4.7A3.81,3.81,0,0,0,171,73c-.72,1-1,2.37-1,4.7s.24,3.74,1,4.69a3.81,3.81,0,0,0,5.55,0Z" transform="translate(-1.47 -5.05)"/><path class="cls-3" d="M189.69,84.25a9.07,9.07,0,0,1-2,.23,3.44,3.44,0,0,1-3-1.1c-.51-.73-.51-1.58-.51-3V72.16h-2.6v-1h2.6V67.28l1.51-.42v4.27h4v1h-4v8.22a5,5,0,0,0,.27,2.25,1.76,1.76,0,0,0,1.75.82,6.84,6.84,0,0,0,1.78-.27h.18Z" transform="translate(-1.47 -5.05)"/><path class="cls-3" d="M200.07,72.28h-.18a8.85,8.85,0,0,0-2.59-.45c-1.66,0-2.72.68-2.72,2.13,0,1.6,1.3,2,3.17,3.1s2.81,2.15,2.81,3.82c0,2.52-2,3.62-4.59,3.62A7.72,7.72,0,0,1,193,84v-1.1h.18a8.2,8.2,0,0,0,3,.6c1.87,0,2.87-.83,2.87-2.38,0-1.84-1.42-2.52-3.08-3.39s-2.9-1.75-2.9-3.58c0-2,1.57-3.32,4.32-3.32a10.12,10.12,0,0,1,2.68.37Z" transform="translate(-1.47 -5.05)"/><path class="cls-3" d="M212.09,84.25a9.19,9.19,0,0,1-2,.23,3.42,3.42,0,0,1-3-1.1c-.51-.73-.51-1.58-.51-3V72.16H204v-1h2.6V67.28l1.5-.42v4.27h4v1h-4v8.22a4.79,4.79,0,0,0,.28,2.25,1.76,1.76,0,0,0,1.75.82,6.94,6.94,0,0,0,1.78-.27h.18Z" transform="translate(-1.47 -5.05)"/><path class="cls-3" d="M215.16,71.31a12,12,0,0,1,3.5-.5c1.63,0,3.23.32,4,1.37a5.09,5.09,0,0,1,.63,3.13v6.52c0,.7,0,1.55,1.3,1.55.3,0,.72,0,.72,0v1a4.55,4.55,0,0,1-1.15.13c-1.5,0-2.32-.55-2.38-2.05-.42,1.22-1.69,2.12-3.68,2.12-2.41,0-4-1.32-4-3.72s1.78-4.07,6.27-4.07c.82,0,1.42.05,1.42.05,0-2.23,0-3.2-.48-3.93a3.31,3.31,0,0,0-2.78-1,9.82,9.82,0,0,0-3.2.58h-.18Zm3.23,12.17A3.14,3.14,0,0,0,221.2,82a6.46,6.46,0,0,0,.6-3.24V77.71h-1c-2.66,0-5.1.45-5.1,3A2.49,2.49,0,0,0,218.39,83.48Z" transform="translate(-1.47 -5.05)"/><path class="cls-3" d="M238.52,65V84.35h-1.09l-.42-2.1c-.42,1.4-1.75,2.33-3.92,2.33a4.78,4.78,0,0,1-3.74-1.5c-.94-1-1.36-2.65-1.36-5.37s.39-4.3,1.33-5.38a5.06,5.06,0,0,1,4-1.6c1.9,0,3.2.73,3.74,2.15V65Zm-8,8c-.72,1-1,2.37-1,4.7s.24,3.74,1,4.69a3.81,3.81,0,0,0,5.55,0c.73-.95,1-2.37,1-4.69s-.24-3.75-1-4.7a3.81,3.81,0,0,0-5.55,0Z" transform="translate(-1.47 -5.05)"/><path class="cls-3" d="M250.08,84.25a9.19,9.19,0,0,1-2,.23,3.42,3.42,0,0,1-3-1.1c-.51-.73-.51-1.58-.51-3V72.16H242v-1h2.6V67.28l1.5-.42v4.27h4v1h-4v8.22a4.79,4.79,0,0,0,.28,2.25,1.76,1.76,0,0,0,1.75.82,6.94,6.94,0,0,0,1.78-.27h.18Z" transform="translate(-1.47 -5.05)"/><path class="cls-3" d="M269.12,66.93h-.18a10.81,10.81,0,0,0-3.2-.52c-2.32,0-3.77,1-3.77,3.22,0,2.5,1.81,3.45,3.74,4.6,2.41,1.43,4.07,2.7,4.07,5.5,0,3.47-2.59,4.77-5.82,4.77a11,11,0,0,1-3.62-.57V82.8h.18a10.47,10.47,0,0,0,3.65.7c2.56,0,4.1-1.17,4.1-3.65,0-2.77-2-3.79-4.07-5-1.93-1.15-3.74-2.28-3.74-5,0-2.9,2-4.37,5.31-4.37a13.36,13.36,0,0,1,3.35.45Z" transform="translate(-1.47 -5.05)"/><path class="cls-3" d="M280,84.25a9.07,9.07,0,0,1-2,.23,3.44,3.44,0,0,1-3-1.1c-.51-.73-.51-1.58-.51-3V72.16h-2.6v-1h2.6V67.28l1.51-.42v4.27h4v1h-4v8.22a5,5,0,0,0,.27,2.25,1.77,1.77,0,0,0,1.75.82,6.84,6.84,0,0,0,1.78-.27H280Z" transform="translate(-1.47 -5.05)"/><path class="cls-3" d="M285.6,83.58c0,.47-.37.87-1.06.87s-1.06-.4-1.06-.87.37-.88,1.06-.88S285.6,83.1,285.6,83.58Z" transform="translate(-1.47 -5.05)"/><path class="cls-3" d="M301.11,65.56a9.38,9.38,0,0,1,4.37.75c1.45.8,2.18,2.42,2.18,4.72,0,2.55-.88,4-2.21,4.83a8.35,8.35,0,0,1-4.34.82H299v7.67h-1.5V65.56ZM299,75.66h2.45a6,6,0,0,0,3-.58c1.08-.65,1.63-2,1.63-4s-.52-3.3-1.6-4a6.12,6.12,0,0,0-3.08-.58H299Z" transform="translate(-1.47 -5.05)"/><path class="cls-3" d="M319.7,83.05a5.32,5.32,0,0,1-4.05,1.53,5.12,5.12,0,0,1-3.95-1.48c-1.06-1.15-1.39-2.75-1.39-5.39s.36-4.3,1.42-5.45a5.28,5.28,0,0,1,4-1.53,5.15,5.15,0,0,1,4,1.48c1,1.15,1.38,2.75,1.38,5.4S320.75,81.9,319.7,83.05Zm-1.21-.6c.75-.9,1-2.35,1-4.79s-.28-3.9-1-4.8a4,4,0,0,0-5.55,0c-.76.9-1,2.35-1,4.8s.27,3.89,1,4.79a4,4,0,0,0,5.55,0Zm-3.83-14.72a1,1,0,1,1-1-.87A.92.92,0,0,1,314.66,67.73Zm4.16,0a1,1,0,0,1-2.05,0,.9.9,0,0,1,1-.87C318.43,66.86,318.82,67.23,318.82,67.73Z" transform="translate(-1.47 -5.05)"/><path class="cls-3" d="M327,65V84.35h-1.51V65Z" transform="translate(-1.47 -5.05)"/><path class="cls-3" d="M338.56,84.25a9.19,9.19,0,0,1-2,.23,3.42,3.42,0,0,1-3-1.1c-.51-.73-.51-1.58-.51-3V72.16h-2.6v-1h2.6V67.28l1.5-.42v4.27h4v1h-4v8.22a4.79,4.79,0,0,0,.28,2.25,1.76,1.76,0,0,0,1.75.82,6.94,6.94,0,0,0,1.78-.27h.18Z" transform="translate(-1.47 -5.05)"/><path class="cls-3" d="M350.63,84a10.9,10.9,0,0,1-3.32.47c-2.33,0-3.68-.65-4.5-1.65a8.3,8.3,0,0,1-1.36-5.22c0-4.2,1.45-6.9,5.13-6.9a4.2,4.2,0,0,1,3.81,1.83c.84,1.35.84,3,.84,5.3h-8.18c0,4,1.27,5.62,4.26,5.62a9.68,9.68,0,0,0,3.14-.55h.18Zm-1-7.17c0-2.93-.66-5.13-3.08-5.13-2.59,0-3.38,2.5-3.5,5.13Z" transform="translate(-1.47 -5.05)"/><path class="cls-3" d="M356.69,71l.43,1.87c.3-1.4,1.63-2.1,3.68-2.1a4.31,4.31,0,0,1,3.68,1.45,5.2,5.2,0,0,1,.72,3.38v8.79h-1.5V75.56a4.25,4.25,0,0,0-.55-2.65,3.09,3.09,0,0,0-2.68-1.08c-3.08,0-3.35,2.15-3.35,3.3v9.22h-1.51V71Z" transform="translate(-1.47 -5.05)"/></svg>