<?xml version="1.0" encoding="UTF-8"?>
<svg id="Ebene_2" data-name="Ebene 2" xmlns="http://www.w3.org/2000/svg" viewBox="0 0 347.34 83.64">
  <defs>
    <style>
      .cls-1 {
        fill: #1d1d1b;
      }

      .cls-2 {
        fill: #d11519;
      }
    </style>
  </defs>
  <g>
    <path class="cls-2" d="M54.71,13.75l9.49,30.22,9.4-30.22h5.33v36.76h-3.83v-31.97l-9.4,30.8h-3.58l-9.35-30.8v32.01h-3.44V13.75h5.38Z"/>
    <path class="cls-2" d="M94.28,13.75v26.06c0,4.65,1.31,7.99,6.49,7.99s6.49-3.34,6.49-7.99V13.75h3.58v25.33c0,3.1-.1,6.25-2.13,8.77-1.65,1.99-4.46,3.25-8.14,3.25s-6.39-1.16-8.09-3.2c-1.99-2.47-2.13-5.57-2.13-8.77V13.75s3.92,0,3.92,0Z"/>
    <path class="cls-2" d="M135.93,17.73h-.29s-2.47-.97-5.18-.97-5.67,1.84-5.67,5.38,2.81,5.96,5.91,8.28c3.68,2.71,6.44,5.13,6.44,10.61s-4.46,9.83-10.17,9.83-6.15-1.11-6.15-1.11v-3.49h.34s2.76,1.31,5.76,1.31,6.25-2.18,6.25-6.1-3.39-6.88-6.44-9.15c-3.15-2.28-5.91-4.5-5.91-9.78s3.34-9.06,9.35-9.06,5.76.87,5.76.87v3.39h0Z"/>
    <path class="cls-2" d="M150.65,13.75v36.76h-3.92V13.75h3.92Z"/>
    <path class="cls-2" d="M165.96,13.75v17.05l11.72-17.05h3.97l-11.82,16.61,12.79,20.15h-4.55l-12.11-19.28v19.28h-3.87V13.75h3.87,0Z"/>
    <path class="cls-2" d="M204.32,17.73h-.29s-2.47-.97-5.18-.97-5.67,1.84-5.67,5.38,2.81,5.96,5.91,8.28c3.68,2.71,6.44,5.13,6.44,10.61s-4.46,9.83-10.17,9.83-6.15-1.11-6.15-1.11v-3.49h.34s2.76,1.31,5.76,1.31,6.25-2.18,6.25-6.1-3.39-6.88-6.44-9.15c-3.15-2.28-5.91-4.5-5.91-9.78s3.34-9.06,9.35-9.06,5.76.87,5.76.87v3.39h0Z"/>
    <path class="cls-2" d="M232.12,49.98s-2.42.87-5.72.87c-10.22,0-12.74-8.38-12.74-18.6s2.47-18.79,12.79-18.79,5.67.87,5.67.87v3.39h-.29s-2.32-.92-5.09-.92c-6.68,0-8.96,5.52-8.96,15.21s2.23,15.5,9.06,15.5,4.99-.92,4.99-.92h.29v3.39h0Z"/>
    <path class="cls-2" d="M245.73,13.75v15.89h13.17v-15.89h3.92v36.76h-3.92v-17.53h-13.17v17.53h-3.92V13.75h3.92Z"/>
    <path class="cls-2" d="M278.18,13.75v26.06c0,4.65,1.31,7.99,6.49,7.99s6.49-3.34,6.49-7.99V13.75h3.58v25.33c0,3.1-.1,6.25-2.13,8.77-1.65,1.99-4.46,3.25-8.14,3.25s-6.39-1.16-8.09-3.2c-1.99-2.47-2.13-5.57-2.13-8.77V13.75s3.92,0,3.92,0Z"/>
    <path class="cls-2" d="M310.09,13.75v33.37h10.85v3.44h-14.77V13.75h3.92Z"/>
    <path class="cls-2" d="M344.67,13.75v3.39h-11.58v12.54h9.83v3.39h-9.83v14.14h12.11v3.39h-15.98V13.75h15.5-.05Z"/>
  </g>
  <g>
    <path class="cls-1" d="M55.04,56.13v16.56h-.77l-.29-1.79c-.29,1.21-1.26,1.99-2.76,1.99s-2.03-.44-2.66-1.26c-.68-.92-.97-2.28-.97-4.6s.29-3.68.92-4.6c.58-.82,1.55-1.36,2.81-1.36s2.28.63,2.66,1.84v-6.73h1.07v-.05ZM49.43,62.96c-.53.82-.68,2.03-.68,4.02s.15,3.2.68,4.02c.44.68,1.11,1.02,1.99,1.02s1.55-.39,1.94-1.02c.53-.82.68-2.03.68-4.02s-.19-3.2-.68-4.02c-.44-.68-1.11-1.02-1.99-1.02s-1.55.39-1.94,1.02Z"/>
    <path class="cls-1" d="M66.04,72.41s-.92.39-2.32.39-2.62-.53-3.2-1.4c-.68-1.02-.97-2.57-.97-4.46,0-3.58,1.02-5.86,3.63-5.86s2.13.48,2.66,1.55c.58,1.16.58,2.62.58,4.5h-5.76c0,3.39.92,4.79,3,4.79s2.23-.48,2.23-.48h.15v.92h0v.05ZM65.31,66.26c0-2.47-.48-4.36-2.18-4.36s-2.37,2.13-2.47,4.36h4.65Z"/>
    <path class="cls-1" d="M75.05,62.19s-.34-.05-.73-.05c-2.13,0-2.28,1.7-2.28,2.81v7.75h-1.07v-11.43h.77l.24,1.7c.34-1.4,1.45-1.74,2.76-1.74h.29v1.02h0v-.05Z"/>
    <path class="cls-1" d="M86.62,56.62v15.16h4.89v.87h-5.96v-16.03s1.07,0,1.07,0Z"/>
    <path class="cls-1" d="M95.1,61.56s1.07-.44,2.47-.44,2.28.29,2.86,1.16c.44.73.44,1.65.44,2.66v5.57c0,.58,0,1.31.92,1.31s.53,0,.53,0v.82s-.34.1-.82.1c-1.07,0-1.65-.48-1.7-1.74-.29,1.07-1.21,1.79-2.62,1.79s-2.86-1.11-2.86-3.2,1.26-3.49,4.41-3.49,1.02,0,1.02,0c0-1.89,0-2.71-.34-3.34-.34-.53-.97-.87-1.99-.87s-2.28.48-2.28.48h-.15v-.92h0l.1.1ZM97.38,71.92c.77,0,1.55-.39,1.99-1.26.44-.87.44-1.99.44-2.76v-.92h-.68c-1.89,0-3.58.39-3.58,2.62s.68,2.32,1.89,2.32h-.05Z"/>
    <path class="cls-1" d="M106.92,61.22l.29,1.6c.19-1.21,1.16-1.79,2.62-1.79s2.13.48,2.62,1.26.53,1.65.53,2.86v7.51h-1.07v-7.51c0-.87,0-1.6-.39-2.28-.34-.53-.87-.92-1.89-.92-2.18,0-2.37,1.84-2.37,2.81v7.85h-1.07v-11.43h.77l-.05.05Z"/>
    <path class="cls-1" d="M124.79,56.13v16.56h-.77l-.29-1.79c-.29,1.21-1.21,1.99-2.76,1.99s-2.03-.44-2.66-1.26c-.68-.92-.97-2.28-.97-4.6s.29-3.68.92-4.6c.58-.82,1.55-1.36,2.81-1.36s2.28.63,2.66,1.84v-6.73h1.07v-.05ZM119.12,62.96c-.53.82-.68,2.03-.68,4.02s.19,3.2.68,4.02c.44.68,1.11,1.02,1.94,1.02s1.55-.39,1.94-1.02c.53-.82.68-2.03.68-4.02s-.19-3.2-.68-4.02c-.44-.68-1.11-1.02-1.94-1.02s-1.55.39-1.94,1.02Z"/>
    <path class="cls-1" d="M135.78,72.41s-.92.39-2.32.39-2.62-.53-3.2-1.4c-.68-1.02-.97-2.57-.97-4.46,0-3.58,1.02-5.86,3.63-5.86s2.13.48,2.66,1.55c.58,1.16.58,2.62.58,4.5h-5.76c0,3.39.92,4.79,3,4.79s2.23-.48,2.23-.48h.15v.92h0v.05ZM135.06,66.26c0-2.47-.48-4.36-2.18-4.36s-2.37,2.13-2.47,4.36h4.65Z"/>
    <path class="cls-1" d="M145.18,62.38h-.15s-.92-.39-1.84-.39-1.94.58-1.94,1.79.92,1.74,2.23,2.66c1.36.97,1.99,1.84,1.99,3.25,0,2.13-1.4,3.1-3.25,3.1s-2.08-.44-2.08-.44v-.92h.15s.97.53,2.08.53,2.03-.68,2.03-2.03-1.02-2.13-2.18-2.91c-1.11-.73-2.03-1.5-2.03-3.05s1.11-2.86,3.05-2.86,1.89.34,1.89.34v.92h.05Z"/>
    <path class="cls-1" d="M150.99,56.13v6.73c.19-1.16,1.07-1.79,2.57-1.79s2.18.48,2.62,1.26c.53.82.53,1.79.53,2.86v7.51h-1.07v-7.51c0-.87,0-1.6-.39-2.28-.34-.53-.87-.92-1.89-.92-2.18,0-2.37,1.84-2.37,2.81v7.85h-1.07v-16.56h1.07v.05Z"/>
    <path class="cls-1" d="M161.6,61.56s1.07-.44,2.47-.44,2.28.29,2.86,1.16c.44.73.44,1.65.44,2.66v5.57c0,.58,0,1.31.92,1.31s.53,0,.53,0v.82s-.34.1-.82.1c-1.07,0-1.65-.48-1.7-1.74-.29,1.07-1.21,1.79-2.62,1.79s-2.86-1.11-2.86-3.2,1.26-3.49,4.41-3.49,1.02,0,1.02,0c0-1.89,0-2.71-.34-3.34-.34-.53-.97-.87-1.94-.87s-2.28.48-2.28.48h-.15v-.92h0l.05.1ZM163.87,71.92c.77,0,1.55-.39,1.99-1.26s.44-1.99.44-2.76v-.92h-.73c-1.89,0-3.58.39-3.58,2.62s.73,2.32,1.89,2.32h0Z"/>
    <path class="cls-1" d="M178.36,72.65l-.29-1.6c-.19,1.21-1.16,1.79-2.52,1.79s-1.99-.44-2.47-1.21c-.48-.73-.53-1.65-.53-2.91v-7.51h1.07v7.51c0,1.11,0,1.7.39,2.32.29.48.87.87,1.79.87,2.08,0,2.28-1.84,2.28-2.81v-7.85h1.07v11.43h-.77v-.05Z"/>
    <path class="cls-1" d="M184.12,76.77v-15.5h.77l.29,1.79c.29-1.21,1.21-1.99,2.76-1.99s2.03.44,2.66,1.26c.68.92.97,2.28.97,4.6s-.29,3.68-.92,4.6c-.58.82-1.55,1.36-2.81,1.36s-2.28-.63-2.66-1.84v5.72h-1.07ZM189.74,70.95c.53-.82.68-2.03.68-4.02s-.19-3.2-.68-4.02c-.44-.68-1.11-1.02-1.94-1.02s-1.55.39-1.94,1.02c-.53.82-.68,2.03-.68,4.02s.19,3.2.68,4.02c.44.68,1.11,1.02,1.94,1.02s1.55-.39,1.94-1.02Z"/>
    <path class="cls-1" d="M200.49,72.6s-.63.19-1.45.19-1.74-.39-2.08-.92c-.39-.63-.39-1.36-.39-2.52v-7.02h-1.84v-.87h1.84v-3.29l1.07-.39v3.63h2.81v.87h-2.81v7.02c0,.97,0,1.45.19,1.94.19.44.53.68,1.21.68s1.26-.24,1.26-.24h.15v.92h.05Z"/>
    <path class="cls-1" d="M209.26,62.38h-.15s-.92-.39-1.84-.39-1.94.58-1.94,1.79.92,1.74,2.23,2.66c1.36.97,1.99,1.84,1.99,3.25,0,2.13-1.4,3.1-3.25,3.1s-2.08-.44-2.08-.44v-.92h.15s.97.53,2.08.53,2.03-.68,2.03-2.03-1.02-2.13-2.18-2.91c-1.11-.73-2.03-1.5-2.03-3.05s1.11-2.86,3.05-2.86,1.89.34,1.89.34v.92h.05Z"/>
    <path class="cls-1" d="M218.46,72.6s-.63.19-1.45.19-1.74-.39-2.08-.92c-.39-.63-.39-1.36-.39-2.52v-7.02h-1.84v-.87h1.84v-3.29l1.07-.39v3.63h2.81v.87h-2.81v7.02c0,.97,0,1.45.19,1.94.19.44.53.68,1.21.68s1.26-.24,1.26-.24h.15v.92h.05Z"/>
    <path class="cls-1" d="M222.77,61.56s1.07-.44,2.47-.44,2.28.29,2.86,1.16c.44.73.44,1.65.44,2.66v5.57c0,.58,0,1.31.92,1.31s.53,0,.53,0v.82s-.34.1-.82.1c-1.07,0-1.65-.48-1.7-1.74-.29,1.07-1.21,1.79-2.62,1.79s-2.86-1.11-2.86-3.2,1.26-3.49,4.41-3.49,1.02,0,1.02,0c0-1.89,0-2.71-.34-3.34-.34-.53-.97-.87-1.94-.87s-2.28.48-2.28.48h-.15v-.92h0l.05.1ZM225.04,71.92c.77,0,1.55-.39,1.99-1.26s.44-1.99.44-2.76v-.92h-.73c-1.89,0-3.58.39-3.58,2.62s.73,2.32,1.89,2.32h0Z"/>
    <path class="cls-1" d="M240.69,56.13v16.56h-.77l-.29-1.79c-.29,1.21-1.21,1.99-2.76,1.99s-2.03-.44-2.66-1.26c-.68-.92-.97-2.28-.97-4.6s.29-3.68.92-4.6c.58-.82,1.55-1.36,2.81-1.36s2.28.63,2.66,1.84v-6.73h1.07v-.05ZM235.07,62.96c-.53.82-.68,2.03-.68,4.02s.19,3.2.68,4.02c.44.68,1.11,1.02,1.94,1.02s1.55-.39,1.99-1.02c.53-.82.68-2.03.68-4.02s-.15-3.2-.68-4.02c-.44-.68-1.11-1.02-1.94-1.02s-1.55.39-1.94,1.02h-.05Z"/>
    <path class="cls-1" d="M250.28,72.6s-.63.19-1.45.19-1.74-.39-2.08-.92c-.39-.63-.39-1.36-.39-2.52v-7.02h-1.84v-.87h1.84v-3.29l1.07-.39v3.63h2.81v.87h-2.81v7.02c0,.97,0,1.45.19,1.94.19.44.53.68,1.21.68s1.26-.24,1.26-.24h.15v.92h.05Z"/>
    <path class="cls-1" d="M266.6,57.83h-.15s-1.07-.44-2.28-.44-2.66.87-2.66,2.76,1.26,2.95,2.66,3.92c1.7,1.21,2.86,2.32,2.86,4.7s-1.84,4.07-4.12,4.07-2.57-.48-2.57-.48v-.97h.15s1.16.58,2.57.58,2.91-1.02,2.91-3.1-1.4-3.25-2.86-4.31c-1.36-.97-2.66-1.94-2.66-4.31s1.45-3.73,3.78-3.73,2.37.39,2.37.39v.92h0Z"/>
    <path class="cls-1" d="M275.66,72.6s-.63.19-1.45.19-1.74-.39-2.08-.92c-.39-.63-.39-1.36-.39-2.52v-7.02h-1.84v-.87h1.84v-3.29l1.07-.39v3.63h2.81v.87h-2.81v7.02c0,.97,0,1.45.19,1.94.19.44.53.68,1.21.68s1.26-.24,1.26-.24h.15v.92h.05Z"/>
    <path class="cls-1" d="M281.08,72.02c0,.39-.24.73-.73.73s-.73-.34-.73-.73.24-.73.73-.73.73.34.73.73Z"/>
    <path class="cls-1" d="M294.89,56.62c.97,0,2.18,0,3.1.63,1.02.68,1.55,2.08,1.55,4.02s-.63,3.44-1.55,4.12c-.87.63-1.89.68-3.05.68h-1.5v6.54h-1.07v-16.03h2.57l-.05.05ZM293.38,65.24h1.74c.68,0,1.5,0,2.13-.48.77-.53,1.16-1.65,1.16-3.39s-.39-2.81-1.11-3.34c-.68-.48-1.5-.48-2.18-.48h-1.74v7.75-.05Z"/>
    <path class="cls-1" d="M309.46,71.54c-.63.82-1.6,1.31-2.86,1.31s-2.13-.39-2.81-1.26c-.73-.97-.97-2.32-.97-4.6s.24-3.68,1.02-4.65c.63-.82,1.6-1.31,2.86-1.31s2.13.39,2.81,1.26c.73.97.97,2.32.97,4.6s-.24,3.68-1.02,4.65h0ZM308.59,71.05c.53-.77.73-1.99.73-4.07s-.19-3.34-.73-4.07c-.39-.58-1.07-.97-1.94-.97s-1.55.39-1.94.97c-.53.77-.73,1.99-.73,4.07s.19,3.34.73,4.07c.39.58,1.07.97,1.94.97s1.55-.39,1.94-.97ZM305.88,58.51c0,.44-.29.73-.73.73s-.73-.34-.73-.73.29-.73.73-.73.73.34.73.73ZM308.83,58.51c0,.44-.29.73-.73.73s-.73-.34-.73-.73.29-.73.73-.73.73.34.73.73Z"/>
    <path class="cls-1" d="M316,56.13v16.56h-1.07v-16.56h1.07Z"/>
    <path class="cls-1" d="M325.59,72.6s-.63.19-1.45.19-1.74-.39-2.08-.92c-.39-.63-.39-1.36-.39-2.52v-7.02h-1.84v-.87h1.84v-3.29l1.07-.39v3.63h2.81v.87h-2.81v7.02c0,.97,0,1.45.19,1.94.19.44.53.68,1.21.68s1.26-.24,1.26-.24h.15v.92h.05Z"/>
    <path class="cls-1" d="M335.57,72.41s-.92.39-2.32.39-2.62-.53-3.2-1.4c-.68-1.02-.97-2.57-.97-4.46,0-3.58,1.02-5.86,3.63-5.86s2.13.48,2.66,1.55c.58,1.16.58,2.62.58,4.5h-5.76c0,3.39.87,4.79,3,4.79s2.23-.48,2.23-.48h.15v.92h0v.05ZM334.89,66.26c0-2.47-.48-4.36-2.18-4.36s-2.37,2.13-2.47,4.36h4.65Z"/>
    <path class="cls-1" d="M341.28,61.22l.29,1.6c.19-1.21,1.16-1.79,2.62-1.79s2.13.48,2.62,1.26.53,1.65.53,2.86v7.51h-1.07v-7.51c0-.87,0-1.6-.39-2.28-.34-.53-.87-.92-1.89-.92-2.18,0-2.37,1.84-2.37,2.81v7.85h-1.07v-11.43h.77l-.05.05Z"/>
  </g>
  <path class="cls-2" d="M37.85,36.76v-.1c-2.08.1-4.12.15-6.15.24h-.15c-.68,0-.53-.29-1.16-.34h-.58c-.63,0-1.31,0-1.79.05-1.02.19-4.41.53-5.13.19-.24.63.15,2.57.63,3-.82.44-1.11.63-2.28,1.55-1.07.82-1.99,1.74-2.66,2.91.58-.1,1.11-.15,1.7-.15-.24.19-2.03,1.94-2.32,2.37-.82-2.23-1.7-4.46-2.62-6.64-.24-.58-.19-1.07.1-1.6,1.31-2.57,2.13-5.28,2.08-8.23,0-4.31-1.11-8.38-3.05-12.21-.53-1.02-1.11-1.99-1.84-2.86s-1.6-1.65-2.52-2.32c-.15-.1-.34-.24-.53-.34-.29-.15-.68-.29-.92-.1,3.39,2.18,4.75,5.38,5.38,9.01.63,3.68-.15,7.17-1.74,10.56-.15-.34-.29-.63-.39-.97-1.94-4.94-3.87-9.88-5.81-14.82-.19-.53-.44-1.07-.77-1.5-.24-.29-.44-.73-.87-.53-.34.15-.29.58-.29.92,0,.73.29,1.4.53,2.13,1.99,5.76,3.97,11.53,6.01,17.24.15.48.1.87-.15,1.31-1.16,1.89-2.32,3.78-3.39,5.72-2.28,4.07-4.36,8.28-4.79,13.03-.48,5.23,1.07,9.74,4.89,13.32,4.46,4.12,9.69,5.09,15.45,3.1.39-.15.58-.1.73.29.15.44.29.82.44,1.21.34.77,1.26,1.4,1.79,1.36,1.55-.24,2.42-1.45,1.7-2.81-.29-.58-.48-1.16-.58-1.6-.1-.34,0-.39.29-.68,4.36-3.44,8.48-8.81,5.33-14.58-.82-1.5-2.03-2.76-2.81-4.31-.77-1.55-.39-3.49.39-4.99.39-.77.92-1.45,1.6-1.99,1.31-1.07,2.95-1.6,4.46-2.37.39-.24.92-.63.87-.63-.87-.82.39-1.31.82-1.94.15-.24.1-.63.1-.92h.05ZM15.67,49.06c-.87,1.11-1.79,2.18-2.47,3.39-1.4,2.37-2.13,5.23-1.45,7.99,0,.19.1.44.19.63.19.63.82,2.62,2.66,4.07.63.48,1.36.87,2.18,1.16.82.29,1.7.29,2.57.15.34-.05.73-.15.73-.58s-.44-.48-.73-.48c-2.71.1-5.04-3.1-4.36-6.49.29-1.5.97-2.76,2.08-3.83.44-.44.73-.48.92.19,1.55,4.41,3.1,8.81,4.7,13.22.15.48.24.68-.1.82-7.56,3.2-15.84-.87-15.93-9.54,0-3.39.97-6.49,2.47-9.44,1.26-2.52,2.52-4.99,4.02-7.36.1-.15.19-.29.39-.58M20.95,54.05c-.44-1.11-.34-1.21.92-1.16.77,0,1.65.24,2.37.73,4.12,2.47,5.67,8.48,2.76,12.3-.24.34-.92,1.11-1.02.82"/>
  <g id="_2556uG" data-name=" 2556uG">
    <g>
      <path class="cls-2" d="M30.78,83.6c-.68-1.79-1.4-3.68-2.08-5.42l-.29.1c.73,1.74,1.45,3.49,2.23,5.38-.53-.19-.68-.53-.82-.77-1.11-1.6-2.32-3.1-3.58-4.55-.34-.39-.48-.73-.39-1.26.15-.73.19-1.5,0-2.23-.1-.29-.1-.53.15-.73.15-.1.34-.15.53-.24.24-.1.58-.29.82-.34.58-.1.92.39,1.16.87.29.58.87.92,1.4,1.31.29.19.48.39.48.77v1.26c0,.44,0,.82.05,1.26s.05.82.1,1.21.1.82.15,1.21c.05.34.1.63.15.97,0,.19.1.39.1.58s0,.39-.1.53l-.05.05h0v.05Z"/>
      <path class="cls-2" d="M2.25.1c-.1.29-.19.77-.24,1.16v1.11c.1.73.34,1.4.63,2.03s.73,1.21,1.11,1.74c1.31,1.79,1.7,3.87,1.6,6.05,0,.48-.05.92-.77.73-.19-.05-.53,0-.63.1-.77,1.02-1.21.29-1.55-.29-.92-1.36-1.7-2.86-2.08-4.46-.44-1.74-.44-3.58.1-5.33.19-.63.44-1.26.73-1.84.15-.24.24-.48.44-.68.15-.15.44-.44.68-.44h0v.1Z"/>
    </g>
  </g>
</svg>